<svg xmlns="http://www.w3.org/2000/svg" width="256" height="256" fill="none" viewBox="0 0 256 256" id="android">
  <rect width="224" height="224" x="16" y="16" fill="#EEE" rx="70"></rect>
  <path fill="#87C527" fill-rule="evenodd" d="M110.521 65.8686C115.693 62.9795 121.654 61.333 128 61.333C134.346 61.333 140.307 62.9795 145.479 65.8686L149.264 62.084C150.265 61.0827 151.889 61.0827 152.89 62.084C153.891 63.0854 153.891 64.7089 152.89 65.7102L149.852 68.7481C158.393 75.3103 163.898 85.6275 163.898 97.2304H92.1027C92.1027 85.6275 97.6075 75.3103 106.148 68.7481L103.11 65.7102C102.109 64.7089 102.109 63.0854 103.11 62.084C104.111 61.0827 105.735 61.0827 106.736 62.084L110.521 65.8686ZM117.744 81.8458C117.744 84.6781 115.448 86.974 112.615 86.974C109.783 86.974 107.487 84.6781 107.487 81.8458C107.487 79.0136 109.783 76.7176 112.615 76.7176C115.448 76.7176 117.744 79.0136 117.744 81.8458ZM143.385 86.974C146.217 86.974 148.513 84.6781 148.513 81.8458C148.513 79.0136 146.217 76.7176 143.385 76.7176C140.552 76.7176 138.257 79.0136 138.257 81.8458C138.257 84.6781 140.552 86.974 143.385 86.974Z" clip-rule="evenodd"></path>
  <path fill="#87C527" d="M71.5898 110.051C71.5898 105.803 75.0338 102.359 79.2822 102.359 83.5305 102.359 86.9745 105.803 86.9745 110.051V140.82C86.9745 145.069 83.5305 148.512 79.2822 148.512 75.0338 148.512 71.5898 145.069 71.5898 140.82V110.051ZM107.487 169.025V186.974C107.487 191.222 110.931 194.666 115.18 194.666 119.428 194.666 122.872 191.222 122.872 186.974V169.025H133.128V186.974C133.128 191.222 136.572 194.666 140.821 194.666 145.069 194.666 148.513 191.222 148.513 186.974V169.025H153.641C159.306 169.025 163.898 164.433 163.898 158.769V102.359H92.1027V158.769C92.1027 164.433 96.6946 169.025 102.359 169.025H107.487ZM169.026 110.051C169.026 105.803 172.47 102.359 176.718 102.359 180.966 102.359 184.41 105.803 184.41 110.051V140.82C184.41 145.069 180.966 148.512 176.718 148.512 172.47 148.512 169.026 145.069 169.026 140.82V110.051Z"></path>
</svg>
