<svg xmlns="http://www.w3.org/2000/svg" width="256" height="256" fill="none" viewBox="0 0 256 256" id="chrome">
  <rect width="224" height="224" x="16" y="16" fill="#EEE" rx="70"></rect>
  <path fill="#fff" d="M127.997 161.327C146.407 161.327 161.331 146.403 161.331 127.993C161.331 109.584 146.407 94.6602 127.997 94.6602C109.588 94.6602 94.6641 109.584 94.6641 127.993C94.6641 146.403 109.588 161.327 127.997 161.327Z"></path>
  <path fill="url(#paint0_linear_533_1534)" d="M99.131 144.669L70.2681 94.6768C64.4157 104.81 61.3344 116.306 61.334 128.008C61.3336 139.71 64.4141 151.206 70.2658 161.339C76.1175 171.473 84.5342 179.888 94.6694 185.737C104.805 191.586 116.301 194.664 128.003 194.661L156.866 144.669V144.66C153.943 149.73 149.736 153.94 144.669 156.868C139.602 159.795 133.853 161.337 128.001 161.338C122.149 161.339 116.4 159.799 111.332 156.873C106.264 153.946 102.056 149.737 99.131 144.669Z"></path>
  <path fill="url(#paint1_linear_533_1534)" d="M156.863 144.663L128 194.655C139.702 194.657 151.198 191.578 161.333 185.727C171.467 179.876 179.883 171.461 185.733 161.326C191.583 151.191 194.662 139.695 194.66 127.993C194.658 116.291 191.575 104.796 185.721 94.6631H127.995L127.988 94.6675C133.84 94.6646 139.59 96.2028 144.659 99.127C149.728 102.051 153.937 106.259 156.864 111.327C159.791 116.394 161.332 122.143 161.332 127.995C161.332 133.847 159.79 139.596 156.863 144.663Z"></path>
  <path fill="#1A73E8" d="M127.998 154.388C142.572 154.388 154.387 142.574 154.387 127.999C154.387 113.425 142.572 101.61 127.998 101.61C113.424 101.61 101.609 113.425 101.609 127.999C101.609 142.574 113.424 154.388 127.998 154.388Z"></path>
  <path fill="url(#paint2_linear_533_1534)" d="M127.998 94.6663H185.724C179.874 84.5313 171.459 76.115 161.325 70.2636C151.191 64.4123 139.695 61.3322 127.993 61.333C116.291 61.3338 104.796 64.4156 94.6626 70.2684C84.5293 76.1211 76.1157 84.5387 70.2676 94.6744L99.1304 144.666L99.1378 144.67C96.2093 139.604 94.6664 133.856 94.6645 128.003C94.6626 122.151 96.2019 116.402 99.1272 111.334C102.052 106.265 106.261 102.056 111.329 99.1307C116.397 96.2048 122.146 94.6651 127.998 94.6663Z"></path>
  <defs>
    <linearGradient id="paint0_linear_533_1534" x1="135.215" x2="77.487" y1="190.497" y2="90.509" gradientUnits="userSpaceOnUse">
      <stop stop-color="#1E8E3E"></stop>
      <stop offset="1" stop-color="#34A853"></stop>
    </linearGradient>
    <linearGradient id="paint1_linear_533_1534" x1="118.273" x2="176.001" y1="194.832" y2="94.844" gradientUnits="userSpaceOnUse">
      <stop stop-color="#FCC934"></stop>
      <stop offset="1" stop-color="#FBBC04"></stop>
    </linearGradient>
    <linearGradient id="paint2_linear_533_1534" x1="70.268" x2="185.724" y1="103.002" y2="103.002" gradientUnits="userSpaceOnUse">
      <stop stop-color="#D93025"></stop>
      <stop offset="1" stop-color="#EA4335"></stop>
    </linearGradient>
  </defs>
</svg>
