<svg xmlns="http://www.w3.org/2000/svg" width="256" height="256" fill="none" viewBox="0 0 256 256" id="edge">
  <rect width="224" height="224" x="16" y="16" fill="#EEE" rx="70"></rect>
  <g clip-path="url(#clip0_533_1796)">
    <path fill="url(#paint0_linear_533_1796)" d="M181.646 160.552C179.875 161.49 178.052 162.323 176.177 163C170.188 165.24 163.885 166.385 157.479 166.385C132.844 166.385 111.385 149.458 111.385 127.688C111.438 121.75 114.719 116.281 119.927 113.469C97.6354 114.406 91.9062 137.635 91.9062 151.229C91.9062 189.719 127.375 193.625 135.031 193.625C139.146 193.625 145.344 192.427 149.094 191.229L149.771 191.021C164.146 186.073 176.333 176.385 184.458 163.521C185.083 162.531 184.771 161.281 183.833 160.656C183.156 160.24 182.323 160.188 181.646 160.552Z"></path>
    <path fill="url(#paint1_radial_533_1796)" d="M181.646 160.552C179.875 161.49 178.052 162.323 176.177 163C170.188 165.24 163.885 166.385 157.479 166.385C132.844 166.385 111.385 149.458 111.385 127.688C111.438 121.75 114.719 116.281 119.927 113.469C97.6354 114.406 91.9062 137.635 91.9062 151.229C91.9062 189.719 127.375 193.625 135.031 193.625C139.146 193.625 145.344 192.427 149.094 191.229L149.771 191.021C164.146 186.073 176.333 176.385 184.458 163.521C185.083 162.531 184.771 161.281 183.833 160.656C183.156 160.24 182.323 160.188 181.646 160.552Z" opacity=".35"></path>
    <path fill="url(#paint2_linear_533_1796)" d="M116.386 187.062C111.751 184.198 107.741 180.396 104.563 175.969C90.8655 157.219 94.9801 130.917 113.73 117.219C115.709 115.812 117.741 114.51 119.928 113.469C121.543 112.687 124.303 111.333 128.001 111.385C133.261 111.437 138.209 113.937 141.386 118.156C143.47 120.969 144.668 124.354 144.72 127.896C144.72 127.792 157.48 86.4375 103.053 86.4375C80.1884 86.4375 61.3864 108.156 61.3864 127.167C61.2822 137.219 63.4697 147.219 67.6885 156.333C82.0635 186.958 117.063 201.958 149.147 191.281C138.157 194.719 126.178 193.208 116.386 187.062Z"></path>
    <path fill="url(#paint3_radial_533_1796)" d="M116.386 187.062C111.751 184.198 107.741 180.396 104.563 175.969C90.8655 157.219 94.9801 130.917 113.73 117.219C115.709 115.812 117.741 114.51 119.928 113.469C121.543 112.687 124.303 111.333 128.001 111.385C133.261 111.437 138.209 113.937 141.386 118.156C143.47 120.969 144.668 124.354 144.72 127.896C144.72 127.792 157.48 86.4375 103.053 86.4375C80.1884 86.4375 61.3864 108.156 61.3864 127.167C61.2822 137.219 63.4697 147.219 67.6885 156.333C82.0635 186.958 117.063 201.958 149.147 191.281C138.157 194.719 126.178 193.208 116.386 187.062Z" opacity=".41"></path>
    <path fill="url(#paint4_radial_533_1796)" d="M140.657 138.885C140.24 139.406 138.938 140.187 138.938 141.854C138.938 143.208 139.824 144.51 141.386 145.604C148.886 150.812 163.001 150.135 163.053 150.135C168.626 150.135 174.042 148.625 178.834 145.812C188.626 140.083 194.667 129.614 194.667 118.26C194.824 106.593 190.501 98.833 188.782 95.3955C177.74 73.7809 153.886 61.333 128.001 61.333C91.5423 61.333 61.8548 90.6038 61.334 127.062C61.5944 108.052 80.5007 92.6872 103.001 92.6872C104.824 92.6872 115.24 92.8434 124.876 97.9476C133.365 102.427 137.844 107.791 140.917 113.156C144.146 118.729 144.719 125.708 144.719 128.521C144.719 131.281 143.313 135.448 140.657 138.885Z"></path>
    <path fill="url(#paint5_radial_533_1796)" d="M140.657 138.885C140.24 139.406 138.938 140.187 138.938 141.854C138.938 143.208 139.824 144.51 141.386 145.604C148.886 150.812 163.001 150.135 163.053 150.135C168.626 150.135 174.042 148.625 178.834 145.812C188.626 140.083 194.667 129.614 194.667 118.26C194.824 106.593 190.501 98.833 188.782 95.3955C177.74 73.7809 153.886 61.333 128.001 61.333C91.5423 61.333 61.8548 90.6038 61.334 127.062C61.5944 108.052 80.5007 92.6872 103.001 92.6872C104.824 92.6872 115.24 92.8434 124.876 97.9476C133.365 102.427 137.844 107.791 140.917 113.156C144.146 118.729 144.719 125.708 144.719 128.521C144.719 131.281 143.313 135.448 140.657 138.885Z"></path>
  </g>
  <defs>
    <radialGradient id="paint1_radial_533_1796" cx="0" cy="0" r="1" gradientTransform="matrix(49.6721 0 0 47.1833 143.204 154.269)" gradientUnits="userSpaceOnUse">
      <stop offset=".72" stop-opacity="0"></stop>
      <stop offset=".95" stop-opacity=".53"></stop>
      <stop offset="1"></stop>
    </radialGradient>
    <radialGradient id="paint3_radial_533_1796" cx="0" cy="0" r="1" gradientTransform="rotate(-81.383 144.99 25.443)scale(74.6863 60.351)" gradientUnits="userSpaceOnUse">
      <stop offset=".76" stop-opacity="0"></stop>
      <stop offset=".95" stop-opacity=".5"></stop>
      <stop offset="1"></stop>
    </radialGradient>
    <radialGradient id="paint4_radial_533_1796" cx="0" cy="0" r="1" gradientTransform="matrix(-4.21737 105.41167 -224.53836 -8.98346 74.798 86.017)" gradientUnits="userSpaceOnUse">
      <stop stop-color="#35C1F1"></stop>
      <stop offset=".11" stop-color="#34C1ED"></stop>
      <stop offset=".23" stop-color="#2FC2DF"></stop>
      <stop offset=".31" stop-color="#2BC3D2"></stop>
      <stop offset=".67" stop-color="#36C752"></stop>
    </radialGradient>
    <radialGradient id="paint5_radial_533_1796" cx="0" cy="0" r="1" gradientTransform="rotate(73.737 25.413 175.075)scale(50.6882 41.2276)" gradientUnits="userSpaceOnUse">
      <stop stop-color="#66EB6E"></stop>
      <stop offset="1" stop-color="#66EB6E" stop-opacity="0"></stop>
    </radialGradient>
    <linearGradient id="paint0_linear_533_1796" x1="91.908" x2="184.764" y1="153.531" y2="153.531" gradientUnits="userSpaceOnUse">
      <stop stop-color="#0C59A4"></stop>
      <stop offset="1" stop-color="#114A8B"></stop>
    </linearGradient>
    <linearGradient id="paint2_linear_533_1796" x1="140.903" x2="82.896" y1="113.284" y2="176.468" gradientUnits="userSpaceOnUse">
      <stop stop-color="#1B9DE2"></stop>
      <stop offset=".16" stop-color="#1595DF"></stop>
      <stop offset=".67" stop-color="#0680D7"></stop>
      <stop offset="1" stop-color="#0078D4"></stop>
    </linearGradient>
    <clipPath id="clip0_533_1796">
      <rect width="133.333" height="133.333" fill="#fff" transform="translate(61.334 61.333)"></rect>
    </clipPath>
  </defs>
</svg>
