<svg xmlns="http://www.w3.org/2000/svg" width="256" height="256" fill="none" viewBox="0 0 256 256" id="firefox">
  <rect width="224" height="224" x="16" y="16" fill="#EEE" rx="70"></rect>
  <path fill="url(#paint0_linear_533_1543)" d="M192.953 101.632C189.908 94.287 183.736 86.3569 178.892 83.852C182.835 91.6008 185.116 99.3729 185.988 105.172C185.988 105.172 185.988 105.213 186.003 105.289C178.078 85.4888 164.639 77.5033 153.664 60.1203C153.107 59.2435 152.552 58.3666 152.01 57.4283C151.704 56.8992 151.456 56.4199 151.24 55.9668C150.785 55.0879 150.434 54.159 150.193 53.1987C150.195 53.1532 150.18 53.1085 150.151 53.0734C150.122 53.0383 150.08 53.0152 150.035 53.0088C149.992 52.9971 149.947 52.9971 149.904 53.0088C149.893 53.014 149.882 53.0209 149.872 53.0292C149.855 53.0292 149.837 53.0497 149.82 53.0555L149.849 53.0175C132.241 63.3532 126.268 82.4723 125.72 92.0392C118.684 92.5214 111.956 95.1179 106.415 99.4899C105.836 98.999 105.23 98.5404 104.601 98.1161C103.004 92.5135 102.937 86.5841 104.406 80.9465C97.2046 84.2349 91.6047 89.4231 87.5332 94.0151H87.5011C84.7216 90.4871 84.917 78.8508 85.0745 76.4218C85.0425 76.2698 83.0038 77.4828 82.7413 77.667C80.2886 79.4205 77.996 81.3885 75.8903 83.548C73.494 85.9827 71.3048 88.6138 69.3455 91.4137C64.8376 97.8162 61.6407 105.051 59.9395 112.699C59.9074 112.851 59.8783 113.009 59.8462 113.164C59.7149 113.78 59.2395 116.876 59.155 117.548V117.703C58.5352 120.901 58.1492 124.141 58 127.395V127.755C58 166.549 89.3823 198 128.091 198C162.76 198 191.544 172.775 197.182 139.64C197.298 138.742 197.395 137.836 197.5 136.93C198.894 124.882 197.345 112.219 192.953 101.632ZM112.164 156.619C112.49 156.774 112.799 156.947 113.135 157.099L113.182 157.128C112.846 156.964 112.505 156.795 112.167 156.619H112.164ZM186.008 105.321V105.254V105.33V105.321Z"></path>
  <path fill="url(#paint1_radial_533_1543)" d="M192.952 101.633C189.907 94.2875 183.735 86.3575 178.891 83.8525C182.834 91.6013 185.115 99.3735 185.987 105.173V105.316C192.602 123.286 188.997 141.561 183.805 152.727C175.773 170.001 156.328 187.709 125.888 186.846C93.0271 185.911 64.0568 161.443 58.6465 129.422C57.6607 124.368 58.6465 121.804 59.1424 117.703C58.5386 120.863 58.3082 121.778 58.0078 127.396V127.756C58.0078 166.549 89.3901 198 128.099 198C162.768 198 191.552 172.775 197.19 139.64C197.306 138.743 197.402 137.837 197.507 136.931C198.893 124.882 197.344 112.22 192.952 101.633Z"></path>
  <path fill="url(#paint2_radial_533_1543)" d="M192.952 101.633C189.907 94.2875 183.735 86.3575 178.891 83.8525C182.834 91.6013 185.115 99.3735 185.987 105.173V105.316C192.602 123.286 188.997 141.561 183.805 152.727C175.773 170.001 156.328 187.709 125.888 186.846C93.0271 185.911 64.0568 161.443 58.6465 129.422C57.6607 124.368 58.6465 121.804 59.1424 117.703C58.5386 120.863 58.3082 121.778 58.0078 127.396V127.756C58.0078 166.549 89.3901 198 128.099 198C162.768 198 191.552 172.775 197.19 139.64C197.306 138.743 197.402 137.837 197.507 136.931C198.893 124.882 197.344 112.22 192.952 101.633Z"></path>
  <path fill="url(#paint3_radial_533_1543)" d="M158.89 109.886C159.044 109.994 159.182 110.102 159.327 110.21C157.568 107.08 155.377 104.215 152.818 101.699C131.031 79.8641 147.107 54.3524 149.816 53.0546L149.846 53.0166C132.238 63.3522 126.265 82.4714 125.717 92.0383C126.533 91.9827 127.347 91.9126 128.178 91.9126C141.318 91.9126 152.762 99.1557 158.89 109.886Z"></path>
  <path fill="url(#paint4_radial_533_1543)" d="M128.222 114.249C128.108 116.003 121.949 122.025 119.793 122.025C99.8614 122.025 96.627 134.108 96.627 134.108C97.5019 144.286 104.578 152.666 113.138 157.1C113.528 157.302 113.922 157.483 114.304 157.664C114.99 157.957 115.678 158.249 116.363 158.509C119.299 159.547 122.373 160.138 125.484 160.263C160.418 161.906 167.19 118.4 141.977 105.767C148.431 104.642 155.133 107.246 158.875 109.88C152.751 99.1494 141.303 91.9062 128.164 91.9062C127.333 91.9062 126.519 91.9764 125.702 92.0319C118.671 92.5201 111.95 95.1195 106.415 99.4914C107.485 100.4 108.693 101.611 111.233 104.118C115.999 108.83 128.196 113.679 128.222 114.249Z"></path>
  <path fill="url(#paint5_radial_533_1543)" d="M128.222 114.249C128.108 116.003 121.949 122.025 119.793 122.025C99.8614 122.025 96.627 134.108 96.627 134.108C97.5019 144.286 104.578 152.666 113.138 157.1C113.528 157.302 113.922 157.483 114.304 157.664C114.99 157.957 115.678 158.249 116.363 158.509C119.299 159.547 122.373 160.138 125.484 160.263C160.418 161.906 167.19 118.4 141.977 105.767C148.431 104.642 155.133 107.246 158.875 109.88C152.751 99.1494 141.303 91.9062 128.164 91.9062C127.333 91.9062 126.519 91.9764 125.702 92.0319C118.671 92.5201 111.95 95.1195 106.415 99.4914C107.485 100.4 108.693 101.611 111.233 104.118C115.999 108.83 128.196 113.679 128.222 114.249Z"></path>
  <path fill="url(#paint6_radial_533_1543)" d="M103.156 97.1542C103.725 97.5225 104.192 97.8323 104.615 98.1158C103.018 92.5133 102.95 86.5839 104.419 80.9463C97.2182 84.2346 91.6184 89.4229 87.5469 94.0149C87.8764 94.0061 98.0436 93.822 103.156 97.1542Z"></path>
  <path fill="url(#paint7_radial_533_1543)" d="M58.6495 129.423C64.0597 161.444 93.03 185.912 125.914 186.847C156.355 187.71 175.788 170.002 183.832 152.728C189.023 141.559 192.628 123.287 186.013 105.317V105.182C186.013 105.2 186.013 105.223 186.028 105.299C188.513 121.572 180.256 137.335 167.347 147.995C167.334 148.025 167.321 148.055 167.309 148.086C142.154 168.614 118.083 160.47 113.21 157.147C112.871 156.983 112.53 156.814 112.192 156.638C97.5245 149.623 91.4668 136.222 92.7646 124.737C80.3838 124.737 76.1606 114.267 76.1606 114.267C76.1606 114.267 87.2786 106.322 101.931 113.232C115.502 119.634 128.248 114.27 128.248 114.267C128.221 113.697 116.024 108.833 111.267 104.136C108.727 101.628 107.52 100.418 106.449 99.509C105.87 99.0181 105.264 98.5595 104.635 98.1352C104.218 97.8429 103.76 97.5506 103.177 97.1735C98.064 93.8413 87.8969 94.0255 87.5615 94.0342H87.5294C84.7499 90.5062 84.9453 78.8699 85.1028 76.4409C85.0707 76.2889 83.032 77.5019 82.7695 77.6861C80.3169 79.4396 78.0242 81.4076 75.9185 83.5671C73.5223 86.0019 71.3331 88.6329 69.3737 91.4328C64.8659 97.8353 61.669 105.07 59.9678 112.718C59.9124 112.852 57.4187 123.764 58.6495 129.423Z"></path>
  <path fill="url(#paint8_radial_533_1543)" d="M152.817 101.7C155.376 104.215 157.568 107.081 159.327 110.211C159.691 110.486 160.042 110.778 160.377 111.088C176.266 125.75 167.954 146.506 167.321 147.997C180.23 137.337 188.487 121.573 186.002 105.301C178.077 85.4888 164.638 77.5033 153.663 60.1203C153.106 59.2435 152.552 58.3666 152.009 57.4283C151.703 56.8992 151.455 56.4199 151.239 55.9668C150.784 55.0879 150.433 54.159 150.192 53.1987C150.194 53.1532 150.179 53.1085 150.15 53.0734C150.121 53.0383 150.08 53.0152 150.035 53.0088C149.992 52.9971 149.946 52.9971 149.903 53.0088C149.892 53.014 149.881 53.0209 149.871 53.0292C149.854 53.0292 149.836 53.0497 149.819 53.0555C147.106 54.3533 131.03 79.865 152.817 101.7Z"></path>
  <path fill="url(#paint9_radial_533_1543)" d="M160.372 111.073C160.037 110.763 159.686 110.471 159.322 110.196C159.179 110.088 159.03 109.98 158.884 109.872C155.142 107.241 148.44 104.634 141.986 105.759C167.196 118.392 160.427 161.898 125.492 160.255C122.382 160.13 119.308 159.539 116.372 158.501C115.687 158.244 114.999 157.96 114.313 157.656C113.916 157.475 113.523 157.294 113.146 157.092L113.193 157.122C118.067 160.454 142.137 168.597 167.293 148.06C167.293 148.06 167.307 148.022 167.33 147.97C167.955 146.505 176.267 125.749 160.372 111.073Z"></path>
  <path fill="url(#paint10_radial_533_1543)" d="M96.6266 134.107C96.6266 134.107 99.8611 122.023 119.793 122.023C121.948 122.023 128.108 115.996 128.222 114.248C128.336 112.5 115.476 119.615 101.906 113.214C87.2527 106.304 76.1348 114.248 76.1348 114.248C76.1348 114.248 80.358 124.718 92.7388 124.718C91.4409 136.203 97.4987 149.593 112.166 156.62C112.493 156.775 112.802 156.947 113.137 157.099C104.577 152.674 97.5103 144.285 96.6266 134.107Z"></path>
  <path fill="url(#paint11_linear_533_1543)" d="M192.953 101.632C189.908 94.287 183.736 86.3569 178.892 83.852C182.835 91.6008 185.116 99.3729 185.988 105.172C185.988 105.172 185.988 105.213 186.003 105.289C178.078 85.4888 164.639 77.5033 153.664 60.1203C153.107 59.2435 152.552 58.3666 152.01 57.4283C151.704 56.8992 151.456 56.4199 151.24 55.9668C150.785 55.0879 150.434 54.159 150.193 53.1987C150.195 53.1532 150.18 53.1085 150.151 53.0734C150.122 53.0383 150.08 53.0152 150.035 53.0088C149.992 52.9971 149.947 52.9971 149.904 53.0088C149.893 53.014 149.882 53.0209 149.872 53.0292C149.855 53.0292 149.837 53.0497 149.82 53.0555L149.849 53.0175C132.241 63.3532 126.268 82.4723 125.72 92.0392C126.537 91.9837 127.35 91.9135 128.181 91.9135C141.321 91.9135 152.765 99.1566 158.893 109.887C155.151 107.256 148.449 104.649 141.994 105.774C167.205 118.407 160.436 161.913 125.501 160.27C122.391 160.145 119.317 159.554 116.381 158.516C115.696 158.259 115.007 157.976 114.322 157.672C113.925 157.49 113.532 157.309 113.155 157.108L113.202 157.137C112.864 156.973 112.522 156.804 112.184 156.628C112.511 156.783 112.82 156.956 113.155 157.108C104.578 152.673 97.5108 144.284 96.6271 134.107C96.6271 134.107 99.8616 122.023 119.793 122.023C121.949 122.023 128.109 115.996 128.222 114.248C128.196 113.678 115.999 108.814 111.242 104.117C108.702 101.609 107.494 100.399 106.424 99.4899C105.845 98.999 105.239 98.5404 104.61 98.1161C103.013 92.5135 102.945 86.5841 104.414 80.9465C97.2133 84.2349 91.6135 89.4231 87.542 94.0151H87.5099C84.7304 90.4871 84.9258 78.8508 85.0833 76.4218C85.0512 76.2698 83.0125 77.4828 82.75 77.667C80.2974 79.4205 78.0047 81.3885 75.899 83.548C73.5028 85.9827 71.3136 88.6138 69.3542 91.4137C64.8464 97.8162 61.6494 105.051 59.9483 112.699C59.9162 112.851 59.887 113.009 59.8549 113.164C59.7237 113.78 59.1287 116.92 59.047 117.592C59.047 117.542 59.047 117.644 59.047 117.592C58.5009 120.836 58.1513 124.109 58 127.395V127.755C58 166.549 89.3823 198 128.091 198C162.76 198 191.544 172.775 197.182 139.64C197.298 138.742 197.395 137.836 197.5 136.93C198.894 124.882 197.345 112.219 192.953 101.632ZM186 105.239V105.315V105.239Z"></path>
  <defs>
    <radialGradient id="paint1_radial_533_1543" cx="0" cy="0" r="1" gradientTransform="matrix(146.123 0 0 146.444 178.296 69.094)" gradientUnits="userSpaceOnUse">
      <stop offset=".13" stop-color="#FFBD4F"></stop>
      <stop offset=".19" stop-color="#FFAC31"></stop>
      <stop offset=".25" stop-color="#FF9D17"></stop>
      <stop offset=".28" stop-color="#FF980E"></stop>
      <stop offset=".4" stop-color="#FF563B"></stop>
      <stop offset=".47" stop-color="#FF3750"></stop>
      <stop offset=".71" stop-color="#F5156C"></stop>
      <stop offset=".78" stop-color="#EB0878"></stop>
      <stop offset=".86" stop-color="#E50080"></stop>
    </radialGradient>
    <radialGradient id="paint2_radial_533_1543" cx="0" cy="0" r="1" gradientTransform="matrix(146.123 0 0 146.444 124.902 128.963)" gradientUnits="userSpaceOnUse">
      <stop offset=".3" stop-color="#960E18"></stop>
      <stop offset=".35" stop-color="#B11927" stop-opacity=".74"></stop>
      <stop offset=".43" stop-color="#DB293D" stop-opacity=".34"></stop>
      <stop offset=".5" stop-color="#F5334B" stop-opacity=".09"></stop>
      <stop offset=".53" stop-color="#FF3750" stop-opacity="0"></stop>
    </radialGradient>
    <radialGradient id="paint3_radial_533_1543" cx="0" cy="0" r="1" gradientTransform="matrix(105.86 0 0 106.092 142.522 35.859)" gradientUnits="userSpaceOnUse">
      <stop offset=".13" stop-color="#FFF44F"></stop>
      <stop offset=".25" stop-color="#FFDC3E"></stop>
      <stop offset=".51" stop-color="#FF9D12"></stop>
      <stop offset=".53" stop-color="#FF980E"></stop>
    </radialGradient>
    <radialGradient id="paint4_radial_533_1543" cx="0" cy="0" r="1" gradientTransform="matrix(69.5748 0 0 69.7275 108.742 167.217)" gradientUnits="userSpaceOnUse">
      <stop offset=".35" stop-color="#3A8EE6"></stop>
      <stop offset=".47" stop-color="#5C79F0"></stop>
      <stop offset=".67" stop-color="#9059FF"></stop>
      <stop offset="1" stop-color="#C139E6"></stop>
    </radialGradient>
    <radialGradient id="paint5_radial_533_1543" cx="0" cy="0" r="1" gradientTransform="matrix(35.78222 -8.87244 10.44323 42.11718 126.997 111.556)" gradientUnits="userSpaceOnUse">
      <stop offset=".21" stop-color="#9059FF" stop-opacity="0"></stop>
      <stop offset=".28" stop-color="#8C4FF3" stop-opacity=".06"></stop>
      <stop offset=".75" stop-color="#7716A8" stop-opacity=".45"></stop>
      <stop offset=".97" stop-color="#6E008B" stop-opacity=".6"></stop>
    </radialGradient>
    <radialGradient id="paint6_radial_533_1543" cx="0" cy="0" r="1" gradientTransform="matrix(50.0542 0 0 50.1641 123.056 63.102)" gradientUnits="userSpaceOnUse">
      <stop stop-color="#FFE226"></stop>
      <stop offset=".12" stop-color="#FFDB27"></stop>
      <stop offset=".3" stop-color="#FFC82A"></stop>
      <stop offset=".5" stop-color="#FFA930"></stop>
      <stop offset=".73" stop-color="#FF7E37"></stop>
      <stop offset=".79" stop-color="#FF7139"></stop>
    </radialGradient>
    <radialGradient id="paint7_radial_533_1543" cx="0" cy="0" r="1" gradientTransform="matrix(213.554 0 0 214.023 162.404 31.287)" gradientUnits="userSpaceOnUse">
      <stop offset=".11" stop-color="#FFF44F"></stop>
      <stop offset=".46" stop-color="#FF980E"></stop>
      <stop offset=".62" stop-color="#FF5634"></stop>
      <stop offset=".72" stop-color="#FF3647"></stop>
      <stop offset=".9" stop-color="#E31587"></stop>
    </radialGradient>
    <radialGradient id="paint8_radial_533_1543" cx="0" cy="0" r="1" gradientTransform="matrix(15.64268 155.21173 -101.75553 10.25521 141.758 54.67)" gradientUnits="userSpaceOnUse">
      <stop stop-color="#FFF44F"></stop>
      <stop offset=".06" stop-color="#FFE847"></stop>
      <stop offset=".17" stop-color="#FFC830"></stop>
      <stop offset=".3" stop-color="#FF980E"></stop>
      <stop offset=".36" stop-color="#FF8B16"></stop>
      <stop offset=".45" stop-color="#FF672A"></stop>
      <stop offset=".57" stop-color="#FF3647"></stop>
      <stop offset=".74" stop-color="#E31587"></stop>
    </radialGradient>
    <radialGradient id="paint9_radial_533_1543" cx="0" cy="0" r="1" gradientTransform="matrix(133.322 0 0 133.615 121.879 81.68)" gradientUnits="userSpaceOnUse">
      <stop offset=".14" stop-color="#FFF44F"></stop>
      <stop offset=".48" stop-color="#FF980E"></stop>
      <stop offset=".59" stop-color="#FF5634"></stop>
      <stop offset=".66" stop-color="#FF3647"></stop>
      <stop offset=".9" stop-color="#E31587"></stop>
    </radialGradient>
    <radialGradient id="paint10_radial_533_1543" cx="0" cy="0" r="1" gradientTransform="matrix(145.922 0 0 146.242 157.073 89.502)" gradientUnits="userSpaceOnUse">
      <stop offset=".09" stop-color="#FFF44F"></stop>
      <stop offset=".23" stop-color="#FFE141"></stop>
      <stop offset=".51" stop-color="#FFAF1E"></stop>
      <stop offset=".63" stop-color="#FF980E"></stop>
    </radialGradient>
    <linearGradient id="paint0_linear_533_1543" x1="183.675" x2="67.07" y1="75.463" y2="187.719" gradientUnits="userSpaceOnUse">
      <stop offset=".05" stop-color="#FFF44F"></stop>
      <stop offset=".11" stop-color="#FFE847"></stop>
      <stop offset=".22" stop-color="#FFC830"></stop>
      <stop offset=".37" stop-color="#FF980E"></stop>
      <stop offset=".4" stop-color="#FF8B16"></stop>
      <stop offset=".46" stop-color="#FF672A"></stop>
      <stop offset=".53" stop-color="#FF3647"></stop>
      <stop offset=".7" stop-color="#E31587"></stop>
    </linearGradient>
    <linearGradient id="paint11_linear_533_1543" x1="182.275" x2="83.052" y1="74.861" y2="173.87" gradientUnits="userSpaceOnUse">
      <stop offset=".17" stop-color="#FFF44F" stop-opacity=".8"></stop>
      <stop offset=".27" stop-color="#FFF44F" stop-opacity=".63"></stop>
      <stop offset=".49" stop-color="#FFF44F" stop-opacity=".22"></stop>
      <stop offset=".6" stop-color="#FFF44F" stop-opacity="0"></stop>
    </linearGradient>
  </defs>
</svg>
