<svg xmlns="http://www.w3.org/2000/svg" width="256" height="256" fill="none" viewBox="0 0 256 256" id="linux">
  <rect width="224" height="224" x="16" y="16" fill="#EEE" rx="70"></rect>
  <g clip-path="url(#clip0_533_1721)">
    <path fill="#000" d="M96.7113 167.4C95.8762 166.154 95.1449 164.475 94.5517 162.466C83.8407 150.386 92.1153 132.611 100.3 120.54C101.085 119.249 101.94 118.002 102.868 116.81C109.113 109.051 110.729 103.652 111.209 96.3469C111.266 94.9871 111.154 93.1868 111.024 91.1185C110.364 80.5577 109.266 63.0113 128.109 61.4557C151.662 59.5109 149.743 81.14 149.569 93.8209C149.562 94.3456 149.555 94.8565 149.55 95.3487C149.486 102.993 153.475 108.227 157.639 113.69C159.16 115.685 160.704 117.71 162.082 119.895C162.123 119.96 162.164 120.025 162.205 120.09C169.481 130.584 176.665 146.246 166.666 161.101C165.261 166.172 163.133 170.826 160.292 174.614C150.093 188.034 141.028 186.672 133.949 185.608C131.814 185.287 129.859 184.993 128.109 185.14C125.201 185.318 122.87 185.788 120.857 186.194C113.075 187.765 110.033 188.379 96.7113 167.4Z"></path>
    <path fill="url(#paint0_linear_533_1721)" d="M141.427 73.2981C141.208 79.5141 134.614 84.9134 126.71 85.4125C118.806 85.9115 112.606 81.1928 112.824 74.9768C113.042 68.7609 119.636 63.3616 127.54 62.8625C135.444 62.4087 141.645 67.0821 141.427 73.2981Z"></path>
    <path fill="url(#paint1_linear_533_1721)" fill-rule="evenodd" d="M127.103 88.407C127.166 91.7873 128.714 94.6691 130.888 95.9707C123.795 95.3353 115.007 97.9286 115.007 102.835C114.897 111.137 110.277 121.465 106.952 128.899C106.297 130.363 105.692 131.715 105.182 132.917C103.122 138.015 101.888 143.467 101.741 148.815C96.2885 141.299 100.25 131.657 102.387 127.472C105.23 121.965 105.175 121.278 104.071 122.569C99.8382 129.766 91.8671 144.223 101.848 152.907C102.165 156.785 103.11 160.543 104.789 163.997C118.151 190.948 143.173 179.877 151.426 165.903C152.524 163.916 153.412 161.993 154.117 160.136C154.53 160.396 154.972 160.598 155.444 160.73C159.592 161.955 165.793 157.282 167.278 154.378C169.068 150.522 167.234 147.89 161.12 144.759C160.809 144.605 160.501 144.46 160.196 144.325C162.541 134.451 156.08 124.185 151.466 119.829C150.605 119.617 150.484 120.105 151.819 121.438C154.725 124.223 161.046 134.153 157.627 143.395C157.063 143.244 156.521 143.137 156.004 143.078C154.954 136.773 152.153 131.868 150.195 128.44C149.751 127.663 149.351 126.962 149.024 126.338C148.365 125.079 147.577 123.775 146.741 122.392C143.521 117.064 139.592 110.563 139.592 100.93C139.1 98.8102 137.1 97.3971 134.437 96.6166C137.527 95.9932 139.847 92.3831 139.767 88.044C139.679 83.3707 136.754 79.6501 133.26 79.7409C129.767 79.8316 126.972 83.7336 127.103 88.407ZM129.985 89.4505C129.941 92.0368 131.164 94.1239 132.78 94.1239C134.352 94.1239 135.706 92.0368 135.749 89.4959C135.793 86.9097 134.57 84.8226 132.954 84.8226C131.339 84.8226 130.029 86.9097 129.985 89.4505Z" clip-rule="evenodd"></path>
    <path fill="url(#paint2_linear_533_1721)" fill-rule="evenodd" d="M118.369 95.6665C120.902 95.5304 122.736 92.1275 122.518 88.0894C122.299 84.0512 120.072 80.9206 117.54 81.0567C115.007 81.1928 113.173 84.5957 113.391 88.6338C113.609 92.672 115.837 95.8026 118.369 95.6665ZM119.898 89.4959C120.116 91.6284 119.33 93.4433 118.195 93.6248C117.059 93.7609 115.968 92.1729 115.749 90.0404C115.531 87.9079 116.317 86.093 117.452 85.9115C118.588 85.7754 119.679 87.3634 119.898 89.4959Z" clip-rule="evenodd"></path>
    <path fill="url(#paint3_linear_533_1721)" d="M130.642 87.9982C130.511 89.4501 131.166 90.6297 132.083 90.7205C133 90.8112 133.873 89.6769 134.004 88.2704C134.135 86.8185 133.48 85.6388 132.563 85.5481C131.646 85.4573 130.773 86.5916 130.642 87.9982Z"></path>
    <path fill="url(#paint4_linear_533_1721)" d="M118.937 88.3612C119.068 89.5409 118.588 90.5845 117.889 90.6752C117.19 90.7659 116.535 89.8585 116.404 88.6334C116.273 87.4538 116.754 86.4102 117.452 86.3195C118.151 86.2287 118.806 87.1815 118.937 88.3612Z"></path>
    <path fill="url(#paint5_linear_533_1721)" d="M145.795 135.685C145.795 143.67 138.415 154.015 125.751 153.924C112.694 154.015 107.148 143.67 107.148 135.685C107.148 127.699 115.795 121.211 126.45 121.211C137.148 121.256 145.795 127.699 145.795 135.685Z"></path>
    <path fill="url(#paint6_linear_533_1721)" d="M138.894 110.594C138.763 118.851 133.567 120.802 127.016 120.802C120.466 120.802 115.706 119.577 115.139 110.594C115.139 104.967 120.466 101.701 127.016 101.701C133.567 101.655 138.894 104.922 138.894 110.594Z"></path>
    <path fill="url(#paint7_linear_533_1721)" d="M99.287 123.298C103.566 116.537 112.606 106.147 100.99 124.75C91.5577 140.085 97.4966 149.931 100.553 152.653C109.374 160.82 109.025 166.31 102.082 162C87.1909 152.79 90.2913 137.272 99.287 123.298Z"></path>
    <path fill="url(#paint8_linear_533_1721)" d="M161.253 126.066C157.541 118.126 145.751 97.9808 161.821 121.393C176.449 142.582 166.187 157.328 164.353 158.78C162.519 160.231 156.362 163.181 158.153 158.054C159.987 152.927 169.07 143.217 161.253 126.066Z"></path>
    <path fill="url(#paint9_linear_533_1721)" d="M96.0554 188.68C86.2737 183.281 72.0816 189.723 77.2344 175.114C78.2825 171.801 75.706 166.81 77.3654 163.589C79.3305 159.642 83.5663 160.504 86.0991 157.872C88.5881 155.15 90.1602 150.431 94.8327 151.157C99.4615 151.883 102.562 157.781 105.793 165.041C108.195 170.213 116.667 177.518 116.099 183.326C115.4 192.219 105.662 193.898 96.0554 188.68Z"></path>
    <path fill="#E68C3F" fill-rule="evenodd" d="M87.177 158.935C84.7982 161.536 80.4295 160.913 78.6762 164.317C77.5501 166.503 78.7804 169.863 78.9464 172.257C79.1515 175.214 76.6996 179.405 77.9482 181.931C79.3506 184.768 85.6858 184.4 88.4708 184.807C95.3457 185.811 106.708 194.709 112.925 187.608C119.002 180.666 107.321 171.882 104.455 165.711C102.592 161.525 99.8036 153.498 94.6124 152.683C90.9536 152.115 89.2867 156.627 87.177 158.935ZM95.055 149.63C101.518 150.643 104.752 159.022 107.137 164.38C110.758 172.15 123.164 180.502 115.123 189.686C107.82 198.027 96.2911 189.068 88.057 187.865C83.9438 187.264 77.4566 187.696 75.3044 183.342C73.4541 179.599 76.2407 176.209 75.982 172.479C75.7616 169.3 74.5037 165.887 76.0507 162.87C78.1685 158.628 82.2569 159.655 85.0358 156.793C87.9866 153.551 89.7552 148.806 95.055 149.63Z" clip-rule="evenodd"></path>
    <path fill="url(#paint10_linear_533_1721)" d="M163.873 186.184C171.035 177.154 186.974 179.015 176.231 166.628C173.961 163.951 174.659 158.234 171.865 155.784C168.589 152.79 164.965 155.24 161.646 153.697C158.327 152.018 154.834 148.797 150.773 151.065C146.712 153.379 146.275 159.369 145.882 167.263C145.533 172.935 140.555 182.418 143.218 187.635C147.061 195.712 157.061 194.623 163.873 186.184Z"></path>
    <path fill="#E68C3F" fill-rule="evenodd" d="M166.733 152.653C168.569 152.605 170.768 152.733 172.833 154.615C175.402 156.88 175.427 160.576 176.396 163.672C177.543 167.337 181.562 169.431 181.321 173.729C180.929 180.756 168.76 182.449 165.014 187.171C161.416 191.629 156.866 194.285 152.549 194.642C146.001 195.185 140.593 189.68 140.976 182.958C141.286 177.516 144.059 172.572 144.397 167.174C144.591 163.265 144.801 159.641 145.508 156.698C146.222 153.724 147.509 151.163 150.056 149.712C155.637 146.595 161.027 152.802 166.733 152.653ZM151.48 152.423C149.97 153.286 149.009 154.876 148.392 157.446C147.768 160.047 147.562 163.38 147.363 167.362C147.03 172.773 144.253 177.713 143.943 183.14C143.668 187.98 147.385 191.972 152.312 191.564C155.658 191.287 159.516 189.174 162.729 185.197C165.599 181.58 178.093 178.223 178.354 173.55C178.525 170.499 174.511 167.638 173.569 164.627C172.832 162.27 172.792 158.62 170.904 156.965C169.698 155.862 168.429 155.698 166.808 155.74C162.11 155.863 155.842 149.993 151.48 152.423Z" clip-rule="evenodd"></path>
    <path fill="url(#paint11_linear_533_1721)" d="M160.772 174.115C171.864 157.1 163.61 157.236 160.816 155.921C158.021 154.56 155.095 151.883 151.82 153.743C148.545 155.648 148.37 160.549 148.283 166.991C148.152 171.619 144.44 179.378 146.667 183.688C149.374 188.725 155.925 181.42 160.772 174.115Z"></path>
    <path fill="url(#paint12_linear_533_1721)" d="M93.7852 176.565C77.1913 165.404 84.9642 161.592 87.4533 159.823C90.4664 157.554 90.5101 153.199 94.2219 153.607C97.9337 154.015 100.117 158.779 102.606 164.678C104.44 168.897 110.816 174.523 110.335 179.378C109.724 185.095 100.947 181.329 93.7852 176.565Z"></path>
    <path fill="#000" d="M166.318 154.242C165.008 156.602 159.68 160.322 156.143 159.324C152.519 158.371 150.859 153.063 151.601 149.07C152.256 144.533 156.143 144.306 161.034 146.574C166.23 149.025 167.846 151.112 166.318 154.242Z"></path>
    <path fill="url(#paint13_linear_533_1721)" d="M162.737 152.925C161.907 154.559 158.414 157.145 155.969 156.464C153.523 155.784 152.301 152.109 152.694 149.341C153.043 146.21 155.663 146.029 158.982 147.572C162.563 149.296 163.698 150.748 162.737 152.925Z"></path>
    <path fill="url(#paint14_linear_533_1721)" d="M117.584 93.7157C119.331 92.037 123.566 86.9099 131.601 92.2638C133.086 93.262 134.309 93.3528 137.147 94.6232C142.868 97.0733 140.16 102.972 134.047 104.968C131.427 105.83 129.069 109.142 124.352 108.825C120.291 108.598 119.243 105.83 116.754 104.333C112.344 101.747 111.689 98.2529 114.09 96.3927C116.492 94.5324 117.409 93.8518 117.584 93.7157Z"></path>
    <path fill="#E68C3F" fill-rule="evenodd" d="M114.623 97.1348C113.71 97.842 113.419 98.7825 113.721 99.8224C114.341 101.958 118.812 104.897 120.524 106.334C121.497 107.151 122.611 107.799 124.41 107.9C128.263 108.159 130.403 105.194 133.779 104.084C136 103.359 140.697 100.588 139.141 97.4122C137.813 94.7025 133.34 94.5351 131.118 93.0419C127.294 90.4941 124.51 90.5123 122.526 91.2271C120.354 92.0103 116.592 95.6101 114.623 97.1348ZM121.942 89.4766C124.522 88.5468 127.876 88.6803 132.085 91.4853C134.852 93.3453 139.061 93.1658 140.73 96.5714C142.856 100.91 137.705 104.744 134.315 105.851C130.685 107.046 128.657 110.04 124.299 109.749C122.04 109.622 120.59 108.772 119.403 107.775C116.94 105.707 112.778 103.742 111.826 100.462C111.299 98.6439 112.069 96.8023 113.557 95.6493C115.964 93.7855 119.215 90.4596 121.942 89.4766Z" clip-rule="evenodd"></path>
    <path fill="#E68C3F" fill-rule="evenodd" d="M137.828 98.4453C137.845 98.7859 137.594 99.0771 137.266 99.0957C132.644 99.3576 129.397 104.632 124.177 104.632C121.257 104.632 118.944 103.223 117.292 101.868C116.958 101.595 114.02 99.3285 114.02 98.7512C114.02 98.4101 114.286 98.1336 114.614 98.1336C115.228 98.1336 117.081 100.144 117.77 100.709C119.327 101.986 121.639 103.397 124.177 103.397C129.344 103.397 132.515 98.1279 137.202 97.8623C137.529 97.8437 137.81 98.1047 137.828 98.4453Z" clip-rule="evenodd"></path>
    <path fill="url(#paint15_linear_533_1721)" d="M120.291 93.2616C121.164 92.4449 123.916 90.2217 127.54 92.4903C128.326 92.944 129.112 93.4431 130.247 94.1237C132.562 95.5302 131.426 97.572 128.632 98.8424C127.365 99.3869 125.269 100.567 123.697 100.476C121.951 100.294 120.771 99.1146 119.636 98.3433C117.496 96.8914 117.627 95.6663 118.632 94.7135C119.374 93.9876 120.204 93.307 120.291 93.2616Z"></path>
  </g>
  <defs>
    <linearGradient id="paint0_linear_533_1721" x1="128.386" x2="126.91" y1="63.376" y2="83.374" gradientUnits="userSpaceOnUse">
      <stop stop-color="#fff" stop-opacity=".8"></stop>
      <stop offset="1" stop-color="#fff" stop-opacity="0"></stop>
    </linearGradient>
    <linearGradient id="paint1_linear_533_1721" x1="107.309" x2="96.336" y1="172.482" y2="136.478" gradientUnits="userSpaceOnUse">
      <stop stop-color="#FFEED7"></stop>
      <stop offset="1" stop-color="#BDBFC2"></stop>
    </linearGradient>
    <linearGradient id="paint2_linear_533_1721" x1="107.309" x2="96.336" y1="172.482" y2="136.478" gradientUnits="userSpaceOnUse">
      <stop stop-color="#FFEED7"></stop>
      <stop offset="1" stop-color="#BDBFC2"></stop>
    </linearGradient>
    <linearGradient id="paint3_linear_533_1721" x1="132.455" x2="131.833" y1="85.704" y2="90.362" gradientUnits="userSpaceOnUse">
      <stop stop-color="#fff" stop-opacity=".65"></stop>
      <stop offset="1" stop-color="#fff" stop-opacity="0"></stop>
    </linearGradient>
    <linearGradient id="paint4_linear_533_1721" x1="117.557" x2="118.226" y1="86.553" y2="90.322" gradientUnits="userSpaceOnUse">
      <stop stop-color="#fff" stop-opacity=".65"></stop>
      <stop offset="1" stop-color="#fff" stop-opacity="0"></stop>
    </linearGradient>
    <linearGradient id="paint5_linear_533_1721" x1="126.41" x2="126.521" y1="125.539" y2="152.182" gradientUnits="userSpaceOnUse">
      <stop stop-color="#fff" stop-opacity=".8"></stop>
      <stop offset="1" stop-color="#fff" stop-opacity="0"></stop>
    </linearGradient>
    <linearGradient id="paint6_linear_533_1721" x1="126.999" x2="127.122" y1="108.83" y2="119.424" gradientUnits="userSpaceOnUse">
      <stop stop-color="#fff" stop-opacity=".65"></stop>
      <stop offset="1" stop-color="#fff" stop-opacity="0"></stop>
    </linearGradient>
    <linearGradient id="paint7_linear_533_1721" x1="99.463" x2="99.463" y1="115.369" y2="154.247" gradientUnits="userSpaceOnUse">
      <stop stop-color="#fff" stop-opacity=".65"></stop>
      <stop offset="1" stop-color="#fff" stop-opacity="0"></stop>
    </linearGradient>
    <linearGradient id="paint8_linear_533_1721" x1="161.552" x2="161.537" y1="111.573" y2="146.701" gradientUnits="userSpaceOnUse">
      <stop stop-color="#fff" stop-opacity=".65"></stop>
      <stop offset="1" stop-color="#fff" stop-opacity="0"></stop>
    </linearGradient>
    <linearGradient id="paint9_linear_533_1721" x1="97.52" x2="91.565" y1="170.916" y2="190.809" gradientUnits="userSpaceOnUse">
      <stop stop-color="#FFA63F"></stop>
      <stop offset="1" stop-color="#FF0"></stop>
    </linearGradient>
    <linearGradient id="paint10_linear_533_1721" x1="153.877" x2="169.768" y1="164.865" y2="186.532" gradientUnits="userSpaceOnUse">
      <stop stop-color="#FFA63F"></stop>
      <stop offset="1" stop-color="#FF0"></stop>
    </linearGradient>
    <linearGradient id="paint11_linear_533_1721" x1="158.134" x2="152.577" y1="147.555" y2="173.736" gradientUnits="userSpaceOnUse">
      <stop stop-color="#fff" stop-opacity=".65"></stop>
      <stop offset="1" stop-color="#fff" stop-opacity="0"></stop>
    </linearGradient>
    <linearGradient id="paint12_linear_533_1721" x1="96.307" x2="97.409" y1="154.029" y2="183.494" gradientUnits="userSpaceOnUse">
      <stop stop-color="#fff" stop-opacity=".65"></stop>
      <stop offset="1" stop-color="#fff" stop-opacity="0"></stop>
    </linearGradient>
    <linearGradient id="paint13_linear_533_1721" x1="157.169" x2="158.457" y1="147.077" y2="155.881" gradientUnits="userSpaceOnUse">
      <stop stop-color="#fff" stop-opacity=".65"></stop>
      <stop offset="1" stop-color="#fff" stop-opacity="0"></stop>
    </linearGradient>
    <linearGradient id="paint14_linear_533_1721" x1="126.43" x2="126.538" y1="93.225" y2="108.73" gradientUnits="userSpaceOnUse">
      <stop stop-color="#FFA63F"></stop>
      <stop offset="1" stop-color="#FF0"></stop>
    </linearGradient>
    <linearGradient id="paint15_linear_533_1721" x1="124.734" x2="124.705" y1="91.759" y2="99.957" gradientUnits="userSpaceOnUse">
      <stop stop-color="#fff" stop-opacity=".65"></stop>
      <stop offset="1" stop-color="#fff" stop-opacity="0"></stop>
    </linearGradient>
    <clipPath id="clip0_533_1721">
      <rect width="106.667" height="140" fill="#fff" transform="translate(74.666 61.333)"></rect>
    </clipPath>
  </defs>
</svg>
