<svg xmlns="http://www.w3.org/2000/svg" width="256" height="256" fill="none" viewBox="0 0 256 256" id="safari">
  <rect width="224" height="224" x="16" y="16" fill="#EEE" rx="70"></rect>
  <path fill="url(#paint0_linear_533_1918)" d="M128.001 194.666C164.82 194.666 194.667 164.819 194.667 128C194.667 91.1807 164.82 61.333 128.001 61.333C91.1817 61.333 61.334 91.1807 61.334 128C61.334 164.819 91.1817 194.666 128.001 194.666Z"></path>
  <path fill="url(#paint1_radial_533_1918)" d="M128.001 189.666C162.058 189.666 189.667 162.057 189.667 128C189.667 93.9421 162.058 66.333 128.001 66.333C93.9431 66.333 66.334 93.9421 66.334 128C66.334 162.057 93.9431 189.666 128.001 189.666Z"></path>
  <path fill="#F3F3F3" d="M128.105 81.3329C127.689 81.3329 127.324 81.0205 127.324 80.6038V69.7183C127.324 69.3016 127.689 68.9893 128.105 68.9893C128.522 68.9893 128.887 69.3016 128.887 69.7183V80.6038C128.834 81.0205 128.522 81.3329 128.105 81.3329Z"></path>
  <path fill="#fff" d="M128.105 81.3853C127.636 81.3853 127.271 81.0208 127.271 80.6041V69.7187C127.271 69.302 127.636 68.9375 128.105 68.9375C128.574 68.9375 128.938 69.302 128.938 69.7187V80.6041C128.938 81.0208 128.521 81.3853 128.105 81.3853ZM128.105 69.0413C127.74 69.0413 127.376 69.3542 127.376 69.7187V80.6041C127.376 80.9686 127.688 81.2815 128.105 81.2815C128.469 81.2815 128.834 80.9686 128.834 80.6041V69.7187C128.782 69.3542 128.469 69.0413 128.105 69.0413Z"></path>
  <path fill="#F3F3F3" d="M133.313 75.4994C132.896 75.4472 132.584 75.1348 132.584 74.7182L132.948 69.874C133 69.4579 133.365 69.1449 133.782 69.1971C134.198 69.2492 134.511 69.5622 134.511 69.9788L134.146 74.8225C134.094 75.2391 133.73 75.5515 133.313 75.4999V75.4994Z"></path>
  <path fill="#fff" d="M133.312 75.552C132.844 75.4999 132.531 75.1353 132.531 74.7187L132.896 69.8746C132.948 69.4584 133.312 69.0939 133.781 69.1455C134.25 69.1977 134.562 69.5627 134.562 69.9789L134.198 74.823C134.146 75.2918 133.781 75.6042 133.312 75.552ZM133.781 69.2498C133.417 69.2498 133.052 69.5106 133.052 69.8751L132.687 74.7192C132.687 75.0832 132.948 75.3961 133.365 75.4477C133.729 75.4477 134.094 75.1875 134.094 74.823L134.458 69.9789C134.458 69.6143 134.146 69.302 133.781 69.2498H133.781Z"></path>
  <path fill="#F3F3F3" d="M137.22 82.2709C136.803 82.1666 136.542 81.802 136.595 81.3854L138.73 70.7079C138.834 70.2918 139.199 70.031 139.615 70.1353C140.032 70.2396 140.292 70.6041 140.24 71.0208L138.105 81.6983C138.052 82.0623 137.636 82.323 137.219 82.2709H137.22Z"></path>
  <path fill="#fff" d="M137.219 82.3224C136.75 82.2181 136.49 81.8015 136.542 81.3848L138.677 70.7074C138.781 70.2913 139.198 69.9784 139.666 70.0827C140.135 70.187 140.396 70.6037 140.344 71.0203L138.208 81.6977C138.104 82.1138 137.687 82.3746 137.219 82.3224ZM139.666 70.187C139.302 70.1349 138.937 70.3429 138.833 70.708L136.698 81.3853C136.646 81.7493 136.854 82.1138 137.271 82.2187C137.635 82.2703 138 82.0617 138.104 81.6972L140.239 71.0203C140.291 70.6037 140.031 70.2913 139.666 70.187Z"></path>
  <path fill="#F3F3F3" d="M143.469 77.5834C143.37 77.5595 143.277 77.5163 143.194 77.4562C143.112 77.3961 143.042 77.3204 142.989 77.2333C142.936 77.1462 142.9 77.0495 142.884 76.9487C142.869 76.8479 142.873 76.7449 142.897 76.6458L144.199 71.9587C144.303 71.542 144.719 71.3334 145.136 71.4377C145.553 71.542 145.814 71.9587 145.709 72.3753L144.407 77.063C144.303 77.4791 143.886 77.6877 143.469 77.5834Z"></path>
  <path fill="#fff" d="M143.469 77.6352C143.052 77.5309 142.74 77.0621 142.897 76.646L144.198 71.9579C144.302 71.5418 144.771 71.281 145.188 71.3853C145.604 71.4896 145.917 71.9584 145.761 72.3745L144.459 77.0627C144.354 77.4788 143.938 77.7395 143.47 77.6352H143.469ZM145.188 71.5418C144.823 71.4375 144.407 71.6461 144.302 72.0106L143.001 76.6976C142.897 77.0621 143.105 77.4272 143.521 77.5309C143.886 77.6352 144.302 77.4272 144.407 77.0627L145.709 72.3745C145.761 72.0106 145.553 71.6461 145.188 71.5412V71.5418Z"></path>
  <path fill="#F3F3F3" d="M146.023 84.9268C145.606 84.7703 145.45 84.3015 145.606 83.937L149.773 73.8849C149.929 73.5204 150.398 73.3118 150.762 73.5204C151.179 73.6763 151.336 74.1456 151.179 74.5096L147.013 84.5617C146.857 84.9268 146.387 85.1348 146.023 84.9268H146.023Z"></path>
  <path fill="#fff" d="M146.021 84.9795C145.821 84.9033 145.659 84.7508 145.571 84.5554C145.483 84.3601 145.477 84.1379 145.552 83.9376L149.719 73.8854C149.875 73.4687 150.344 73.3122 150.813 73.4687C151.013 73.545 151.175 73.6975 151.263 73.8928C151.351 74.0881 151.358 74.3103 151.282 74.5106L147.115 84.5629C146.906 84.9795 146.438 85.1876 146.021 84.9795ZM150.761 73.573C150.396 73.4171 149.98 73.573 149.823 73.9375L145.656 83.9897C145.501 84.3543 145.709 84.7188 146.073 84.8752C146.438 85.0311 146.854 84.8752 147.011 84.5107L151.178 74.4585C151.282 74.1456 151.125 73.7289 150.761 73.573Z"></path>
  <path fill="#F3F3F3" d="M153.052 81.5936C152.687 81.385 152.531 80.9683 152.687 80.6038L154.875 76.2813C155.083 75.9163 155.499 75.7598 155.917 75.9684C156.281 76.177 156.437 76.5937 156.281 76.9577L154.093 81.2807C153.885 81.6452 153.468 81.8022 153.052 81.5936H153.052Z"></path>
  <path fill="#fff" d="M153.053 81.6459C152.635 81.4373 152.479 80.9685 152.687 80.5518L154.875 76.2293C155.083 75.8121 155.553 75.6562 155.969 75.8642C156.385 76.0728 156.542 76.5416 156.333 76.9583L154.146 81.2809C153.938 81.6975 153.469 81.854 153.052 81.6454L153.053 81.6459ZM155.917 75.9685C155.552 75.8126 155.135 75.9164 154.979 76.2809L152.792 80.604C152.636 80.9163 152.792 81.333 153.104 81.5416C153.469 81.6975 153.885 81.5938 154.042 81.2292L156.23 76.9061C156.385 76.5938 156.23 76.1771 155.917 75.9685Z"></path>
  <path fill="#F3F3F3" d="M154.095 89.3022C153.731 89.042 153.626 88.5732 153.887 88.2608L159.929 79.25C160.137 78.8855 160.606 78.8334 160.97 79.042C161.335 79.3022 161.439 79.771 161.179 80.0834L155.137 89.0942C154.929 89.4587 154.46 89.563 154.095 89.3022Z"></path>
  <path fill="#fff" d="M154.095 89.3539C153.731 89.0937 153.626 88.5727 153.835 88.2082L159.876 79.1977C160.137 78.8332 160.605 78.7289 161.022 78.9896C161.387 79.2498 161.491 79.7708 161.283 80.1353L155.241 89.1458C154.981 89.5103 154.46 89.6141 154.095 89.3539ZM160.97 79.0939C160.658 78.8853 160.189 78.9374 159.981 79.2498L153.939 88.2604C153.731 88.5722 153.834 88.9894 154.147 89.1974C154.46 89.406 154.928 89.3539 155.136 89.0415L161.178 80.0831C161.387 79.7708 161.283 79.302 160.97 79.0939Z"></path>
  <path fill="#F3F3F3" d="M161.698 87.3754C161.386 87.1147 161.282 86.6458 161.542 86.3335L164.563 82.5313C164.823 82.2195 165.292 82.1668 165.604 82.4276C165.917 82.6878 166.021 83.1566 165.76 83.469L162.74 87.2711C162.48 87.5835 162.011 87.6356 161.698 87.3754H161.698Z"></path>
  <path fill="#fff" d="M161.647 87.4267C161.283 87.1659 161.23 86.645 161.491 86.2804L164.511 82.4787C164.772 82.1136 165.293 82.0615 165.657 82.3744C166.022 82.6346 166.074 83.1556 165.813 83.5201L162.793 87.3224C162.532 87.6869 162.012 87.7391 161.647 87.4267ZM165.553 82.4782C165.241 82.218 164.824 82.2701 164.564 82.5825L161.543 86.3847C161.335 86.6971 161.387 87.1138 161.699 87.374C162.012 87.6348 162.428 87.5826 162.688 87.2702L165.709 83.468C165.918 83.1556 165.865 82.6868 165.553 82.4787L165.553 82.4782Z"></path>
  <path fill="#F3F3F3" d="M161.178 95.1875C160.865 94.8751 160.865 94.4063 161.178 94.1456L168.885 86.4898C169.198 86.1774 169.667 86.229 169.927 86.4898C170.187 86.75 170.24 87.2709 169.927 87.5311L162.272 95.1875C161.959 95.4998 161.49 95.4998 161.178 95.1875Z"></path>
  <path fill="#fff" d="M161.125 95.2399C160.975 95.087 160.891 94.8813 160.891 94.667C160.891 94.4527 160.975 94.247 161.125 94.0942L168.833 86.4378C168.986 86.2874 169.192 86.2031 169.406 86.2031C169.621 86.2031 169.827 86.2874 169.98 86.4378C170.13 86.5906 170.214 86.7963 170.214 87.0106C170.214 87.2249 170.13 87.4306 169.98 87.5835L162.271 95.2393C162.118 95.3895 161.912 95.4737 161.698 95.4737C161.484 95.4737 161.278 95.3895 161.125 95.2393V95.2399ZM169.927 86.4899C169.667 86.2292 169.198 86.2292 168.938 86.4899L161.229 94.1458C160.969 94.4065 160.969 94.8754 161.229 95.1356C161.49 95.3963 161.958 95.3963 162.219 95.1356L169.927 87.4797C170.188 87.219 170.188 86.8023 169.927 86.4899Z"></path>
  <path fill="#F3F3F3" d="M168.99 94.7708C168.73 94.4584 168.73 93.9896 169.042 93.7289L172.74 90.6042C173.052 90.344 173.521 90.3956 173.781 90.7085C174.042 91.0209 174.042 91.4897 173.729 91.7499L170.032 94.8751C169.719 95.1353 169.25 95.0831 168.99 94.7708Z"></path>
  <path fill="#fff" d="M168.938 94.8227C168.626 94.4582 168.678 93.9372 168.99 93.677L172.688 90.5517C173 90.2394 173.521 90.2915 173.834 90.656C174.147 91.0206 174.094 91.5415 173.782 91.8017L170.084 94.927C169.772 95.2388 169.251 95.1872 168.939 94.8227H168.938ZM173.73 90.7082C173.469 90.3958 173.053 90.3958 172.741 90.6039L169.043 93.7291C168.782 93.9893 168.73 94.406 168.99 94.7184C169.251 95.0307 169.668 95.0307 169.98 94.8227L173.678 91.6974C173.99 91.4372 173.99 91.0206 173.73 90.7082Z"></path>
  <path fill="#F3F3F3" d="M166.906 102.271C166.646 101.907 166.75 101.438 167.115 101.229L176.177 95.1876C176.541 94.979 177.01 95.0833 177.218 95.3962C177.479 95.7608 177.374 96.2296 177.01 96.4376L167.948 102.479C167.635 102.688 167.166 102.583 166.906 102.271Z"></path>
  <path fill="#fff" d="M166.855 102.271C166.595 101.906 166.699 101.385 167.064 101.125L176.126 95.0832C176.491 94.823 177.012 94.9273 177.272 95.3439C177.533 95.7085 177.428 96.2294 177.064 96.4891L168.002 102.532C167.637 102.792 167.116 102.688 166.855 102.271V102.271ZM177.168 95.4482C176.96 95.1353 176.543 95.031 176.231 95.2396L167.168 101.281C166.856 101.49 166.751 101.906 167.012 102.271C167.22 102.583 167.637 102.687 167.949 102.479L177.012 96.4375C177.324 96.1773 177.376 95.7601 177.168 95.4482Z"></path>
  <path fill="#F3F3F3" d="M174.669 103.365C174.46 103 174.565 102.532 174.929 102.323L179.148 99.9274C179.512 99.7188 179.981 99.8753 180.189 100.239C180.398 100.604 180.294 101.073 179.929 101.281L175.71 103.677C175.346 103.885 174.877 103.729 174.668 103.364L174.669 103.365Z"></path>
  <path fill="#fff" d="M174.616 103.417C174.408 103 174.512 102.531 174.876 102.323L179.095 99.9275C179.46 99.7188 179.981 99.8753 180.189 100.239C180.397 100.657 180.293 101.125 179.929 101.333L175.71 103.73C175.345 103.938 174.824 103.781 174.616 103.417ZM180.137 100.292C179.929 99.9275 179.512 99.8231 179.2 100.031L174.981 102.428C174.668 102.636 174.564 103.052 174.72 103.365C174.928 103.729 175.345 103.834 175.658 103.625L179.876 101.229C180.189 101.073 180.293 100.657 180.137 100.292Z"></path>
  <path fill="#F3F3F3" d="M171.178 110.291C171.023 109.875 171.178 109.458 171.595 109.302L181.647 105.136C182.012 104.979 182.48 105.187 182.636 105.552C182.793 105.968 182.636 106.385 182.22 106.541L172.168 110.708C171.803 110.864 171.335 110.708 171.178 110.291Z"></path>
  <path fill="#fff" d="M171.126 110.343C170.97 109.927 171.126 109.458 171.542 109.25L181.594 105.083C181.795 105.008 182.017 105.015 182.212 105.103C182.407 105.19 182.56 105.352 182.636 105.552C182.792 105.969 182.636 106.437 182.219 106.646L172.168 110.812C171.967 110.888 171.745 110.881 171.55 110.793C171.355 110.705 171.202 110.544 171.126 110.344V110.343ZM182.532 105.604C182.376 105.24 181.959 105.083 181.647 105.188L171.595 109.354C171.23 109.51 171.074 109.927 171.23 110.292C171.386 110.656 171.803 110.813 172.115 110.708L182.167 106.542C182.532 106.386 182.688 105.969 182.532 105.604Z"></path>
  <path fill="#F3F3F3" d="M178.522 112.896C178.367 112.479 178.575 112.063 178.991 111.906L183.574 110.396C183.939 110.24 184.407 110.5 184.512 110.865C184.668 111.281 184.46 111.698 184.043 111.854L179.46 113.365C179.095 113.521 178.679 113.313 178.522 112.896V112.896Z"></path>
  <path fill="#fff" d="M178.469 112.948C178.313 112.531 178.521 112.062 178.991 111.906L183.573 110.395C183.99 110.239 184.458 110.5 184.615 110.917C184.771 111.333 184.563 111.802 184.093 111.958L179.511 113.469C179.094 113.573 178.626 113.364 178.469 112.948ZM184.51 110.969C184.406 110.604 183.99 110.395 183.625 110.5L179.042 112.01C178.678 112.114 178.521 112.531 178.626 112.896C178.73 113.26 179.146 113.469 179.511 113.364L184.094 111.854C184.458 111.698 184.615 111.333 184.51 110.968V110.969Z"></path>
  <path fill="#F3F3F3" d="M173.836 119.093C173.731 118.677 173.991 118.26 174.408 118.208L185.085 116.125C185.501 116.02 185.866 116.333 185.97 116.749C186.074 117.166 185.814 117.583 185.397 117.635L174.72 119.718C174.304 119.77 173.887 119.51 173.835 119.093H173.836Z"></path>
  <path fill="#fff" d="M173.729 119.094C173.625 118.626 173.937 118.209 174.354 118.105L185.031 116.021C185.448 115.917 185.865 116.23 185.968 116.699C186.073 117.167 185.76 117.584 185.344 117.688L174.666 119.771C174.25 119.876 173.833 119.563 173.729 119.094V119.094ZM185.865 116.75C185.812 116.386 185.448 116.125 185.083 116.178L174.406 118.261C174.042 118.313 173.781 118.729 173.885 119.094C173.937 119.459 174.302 119.719 174.667 119.667L185.344 117.584C185.708 117.479 185.968 117.115 185.865 116.75Z"></path>
  <path fill="#F3F3F3" d="M180.501 123.104C180.449 122.687 180.709 122.322 181.125 122.27L185.917 121.697C186.333 121.645 186.699 121.958 186.75 122.375C186.802 122.791 186.542 123.156 186.125 123.208L181.334 123.781C180.969 123.833 180.552 123.52 180.5 123.104H180.501Z"></path>
  <path fill="#fff" d="M180.449 123.104C180.397 122.635 180.709 122.218 181.126 122.166L185.917 121.594C186.334 121.541 186.75 121.854 186.802 122.323C186.855 122.791 186.542 123.208 186.126 123.26L181.334 123.833C180.918 123.885 180.501 123.572 180.449 123.104ZM186.75 122.375C186.699 122.01 186.334 121.697 185.969 121.749L181.178 122.323C180.814 122.375 180.553 122.739 180.605 123.104C180.657 123.468 181.022 123.781 181.386 123.729L186.178 123.156C186.542 123.104 186.802 122.739 186.751 122.375H186.75Z"></path>
  <path fill="#F3F3F3" d="M174.668 128.156C174.668 127.739 174.98 127.375 175.397 127.375H186.282C186.699 127.375 187.012 127.739 187.012 128.156C187.012 128.573 186.699 128.937 186.282 128.937H175.397C174.98 128.937 174.668 128.573 174.668 128.156Z"></path>
  <path fill="#fff" d="M174.615 128.157C174.615 127.688 174.98 127.323 175.396 127.323H186.282C186.699 127.323 187.063 127.688 187.063 128.157C187.063 128.625 186.699 128.99 186.282 128.99H175.396C174.98 128.99 174.615 128.625 174.615 128.157ZM186.959 128.209C186.959 127.844 186.646 127.48 186.281 127.48H175.397C175.032 127.48 174.72 127.791 174.72 128.209C174.72 128.573 175.032 128.938 175.397 128.938H186.282C186.647 128.886 186.959 128.573 186.959 128.209H186.959Z"></path>
  <path fill="#F3F3F3" d="M180.45 133.417C180.501 133 180.814 132.688 181.231 132.688L186.075 133.052C186.491 133.104 186.803 133.469 186.751 133.885C186.699 134.302 186.387 134.614 185.97 134.614L181.127 134.25C180.762 134.198 180.449 133.833 180.449 133.417H180.45Z"></path>
  <path fill="#fff" d="M180.396 133.417C180.449 132.948 180.813 132.636 181.23 132.636L186.074 133C186.491 133.052 186.855 133.417 186.803 133.886C186.751 134.355 186.386 134.667 185.97 134.667L181.126 134.302C180.709 134.25 180.396 133.834 180.396 133.417ZM186.751 133.886C186.803 133.521 186.491 133.157 186.126 133.157L181.282 132.792C180.917 132.792 180.605 133.052 180.552 133.47C180.501 133.834 180.813 134.198 181.178 134.198L186.022 134.563C186.386 134.563 186.699 134.251 186.751 133.886Z"></path>
  <path fill="#F3F3F3" d="M173.731 137.218C173.836 136.802 174.2 136.541 174.617 136.594L185.294 138.729C185.71 138.833 185.971 139.197 185.867 139.614C185.763 140.031 185.398 140.292 184.981 140.239L174.304 138.104C173.939 138.052 173.679 137.635 173.731 137.218Z"></path>
  <path fill="#fff" d="M173.677 137.218C173.781 136.749 174.198 136.489 174.614 136.541L185.292 138.676C185.709 138.78 186.021 139.197 185.917 139.666C185.813 140.134 185.396 140.395 184.98 140.343L174.301 138.208C173.885 138.103 173.624 137.687 173.677 137.219V137.218ZM185.813 139.666C185.865 139.301 185.657 138.937 185.292 138.832L174.614 136.697C174.25 136.645 173.885 136.854 173.78 137.27C173.729 137.635 173.937 137.999 174.302 138.103L184.98 140.239C185.396 140.291 185.709 140.03 185.813 139.666Z"></path>
  <path fill="#F3F3F3" d="M178.418 143.468C178.441 143.369 178.485 143.276 178.545 143.193C178.605 143.111 178.68 143.041 178.767 142.988C178.854 142.935 178.951 142.899 179.052 142.883C179.153 142.868 179.256 142.872 179.355 142.896L184.042 144.197C184.459 144.302 184.667 144.719 184.563 145.135C184.539 145.234 184.496 145.328 184.436 145.411C184.376 145.493 184.3 145.563 184.213 145.616C184.126 145.669 184.029 145.705 183.929 145.721C183.828 145.737 183.725 145.732 183.626 145.708L178.938 144.406C178.521 144.302 178.313 143.885 178.417 143.468H178.418Z"></path>
  <path fill="#fff" d="M178.366 143.469C178.471 143.052 178.94 142.74 179.356 142.897L184.044 144.198C184.46 144.302 184.721 144.771 184.617 145.188C184.513 145.604 184.044 145.916 183.627 145.761L178.94 144.459C178.523 144.354 178.262 143.938 178.367 143.47L178.366 143.469ZM184.46 145.188C184.565 144.823 184.356 144.406 183.992 144.302L179.304 143C178.94 142.896 178.575 143.105 178.471 143.521C178.367 143.886 178.575 144.302 178.94 144.406L183.627 145.708C183.992 145.761 184.356 145.553 184.46 145.188Z"></path>
  <path fill="#F3F3F3" d="M171.073 145.968C171.229 145.552 171.698 145.395 172.062 145.552L182.115 149.718C182.479 149.874 182.687 150.343 182.531 150.707C182.375 151.125 181.906 151.281 181.542 151.125L171.49 146.958C171.073 146.802 170.917 146.333 171.073 145.969V145.968Z"></path>
  <path fill="#fff" d="M171.022 145.917C171.098 145.716 171.251 145.555 171.446 145.467C171.642 145.379 171.864 145.372 172.064 145.448L182.116 149.615C182.533 149.771 182.688 150.24 182.533 150.709C182.456 150.909 182.304 151.071 182.108 151.158C181.913 151.246 181.691 151.253 181.491 151.177L171.439 147.011C171.022 146.802 170.866 146.333 171.022 145.917ZM182.428 150.656C182.584 150.292 182.428 149.875 182.064 149.719L172.012 145.552C171.647 145.396 171.283 145.604 171.126 145.969C170.971 146.333 171.126 146.75 171.491 146.906L181.543 151.073C181.907 151.177 182.324 151.021 182.428 150.656Z"></path>
  <path fill="#F3F3F3" d="M174.459 153C174.667 152.636 175.083 152.479 175.448 152.636L179.77 154.823C180.135 154.979 180.291 155.448 180.083 155.865C179.875 156.229 179.458 156.386 179.093 156.229L174.772 154.042C174.407 153.834 174.25 153.365 174.459 153Z"></path>
  <path fill="#fff" d="M174.406 152.948C174.615 152.531 175.084 152.375 175.5 152.583L179.823 154.771C180.24 154.979 180.396 155.448 180.188 155.864C179.979 156.281 179.51 156.437 179.094 156.229L174.771 154.042C174.354 153.886 174.198 153.364 174.406 152.948ZM180.032 155.812C180.188 155.448 180.083 155.031 179.719 154.875L175.396 152.687C175.083 152.531 174.667 152.687 174.458 153C174.302 153.364 174.406 153.781 174.771 153.937L179.093 156.125C179.458 156.281 179.875 156.177 180.032 155.812Z"></path>
  <path fill="#F3F3F3" d="M166.803 153.99C167.063 153.625 167.48 153.521 167.845 153.781L176.907 159.823C177.272 160.031 177.324 160.501 177.116 160.865C176.855 161.23 176.438 161.333 176.074 161.073L167.011 155.031C166.647 154.771 166.542 154.302 166.803 153.99Z"></path>
  <path fill="#fff" d="M166.751 153.937C167.012 153.572 167.533 153.468 167.897 153.677L176.96 159.718C177.324 159.978 177.429 160.447 177.168 160.864C176.908 161.229 176.387 161.332 176.023 161.124L166.959 155.083C166.543 154.822 166.491 154.301 166.751 153.937ZM177.012 160.811C177.22 160.5 177.168 160.03 176.856 159.822L167.793 153.78C167.48 153.572 167.064 153.677 166.855 153.989C166.647 154.301 166.699 154.77 167.011 154.978L176.074 161.02C176.387 161.229 176.803 161.124 177.012 160.812V160.811Z"></path>
  <path fill="#F3F3F3" d="M168.729 161.541C168.99 161.228 169.458 161.125 169.771 161.385L173.573 164.354C173.885 164.614 173.938 165.083 173.677 165.396C173.417 165.707 172.948 165.812 172.635 165.552L168.833 162.583C168.521 162.322 168.469 161.854 168.729 161.541Z"></path>
  <path fill="#fff" d="M168.678 161.49C168.939 161.125 169.46 161.073 169.824 161.334L173.626 164.302C173.991 164.562 174.043 165.083 173.782 165.448C173.522 165.813 173.001 165.865 172.637 165.604L168.834 162.636C168.47 162.375 168.418 161.854 168.678 161.49ZM173.678 165.396C173.938 165.083 173.886 164.667 173.574 164.407L169.772 161.438C169.46 161.23 169.043 161.282 168.783 161.594C168.522 161.907 168.574 162.323 168.886 162.583L172.688 165.552C173.001 165.761 173.417 165.708 173.678 165.396H173.678Z"></path>
  <path fill="#F3F3F3" d="M160.969 161.02C161.282 160.708 161.75 160.708 162.011 161.02L169.719 168.676C170.032 168.989 169.98 169.458 169.719 169.718C169.407 170.03 168.938 170.03 168.677 169.718L160.969 162.062C160.708 161.802 160.708 161.281 160.969 161.02Z"></path>
  <path fill="#fff" d="M160.969 160.968C161.122 160.818 161.327 160.733 161.542 160.733C161.756 160.733 161.962 160.818 162.115 160.968L169.823 168.624C169.974 168.777 170.058 168.982 170.058 169.197C170.058 169.411 169.974 169.617 169.823 169.77C169.671 169.92 169.465 170.004 169.25 170.004C169.036 170.004 168.83 169.92 168.678 169.77L160.969 162.114C160.604 161.801 160.604 161.281 160.969 160.968ZM169.719 169.666C169.98 169.405 169.98 168.937 169.719 168.676L162.011 161.02C161.75 160.76 161.282 160.76 161.021 161.02C160.761 161.28 160.761 161.749 161.021 162.009L168.73 169.666C168.99 169.979 169.407 169.979 169.719 169.666Z"></path>
  <path fill="#F3F3F3" d="M161.439 168.781C161.752 168.521 162.22 168.521 162.481 168.833L165.658 172.479C165.918 172.792 165.866 173.261 165.553 173.521C165.242 173.781 164.772 173.781 164.512 173.469L161.335 169.823C161.074 169.563 161.126 169.094 161.439 168.781Z"></path>
  <path fill="#fff" d="M161.386 168.781C161.751 168.469 162.22 168.521 162.531 168.833L165.709 172.479C166.021 172.792 165.969 173.312 165.605 173.625C165.24 173.937 164.771 173.885 164.459 173.573L161.281 169.927C161.021 169.563 161.021 169.042 161.386 168.781H161.386ZM165.553 173.521C165.865 173.26 165.865 172.843 165.657 172.531L162.479 168.885C162.219 168.625 161.802 168.573 161.49 168.833C161.178 169.094 161.178 169.51 161.386 169.822L164.563 173.468C164.823 173.781 165.241 173.781 165.552 173.521H165.553Z"></path>
  <path fill="#F3F3F3" d="M153.938 166.802C154.303 166.541 154.772 166.646 154.98 167.01L161.022 176.02C161.23 176.385 161.126 176.854 160.813 177.062C160.449 177.322 159.98 177.218 159.771 176.854L153.73 167.843C153.521 167.479 153.625 167.01 153.938 166.802H153.938Z"></path>
  <path fill="#fff" d="M153.939 166.75C154.304 166.49 154.825 166.594 155.085 166.959L161.126 175.969C161.386 176.333 161.282 176.854 160.866 177.114C160.501 177.375 159.981 177.27 159.72 176.906L153.679 167.896C153.419 167.479 153.523 167.011 153.939 166.75V166.75ZM160.814 177.01C161.126 176.801 161.23 176.385 161.022 176.072L154.981 167.062C154.772 166.75 154.356 166.698 153.992 166.906C153.679 167.114 153.575 167.531 153.783 167.844L159.824 176.854C160.033 177.114 160.502 177.218 160.813 177.009L160.814 177.01Z"></path>
  <path fill="#F3F3F3" d="M152.844 174.51C153.208 174.302 153.677 174.406 153.885 174.771L156.281 178.99C156.489 179.354 156.333 179.823 155.968 180.031C155.604 180.24 155.135 180.136 154.927 179.771L152.531 175.552C152.375 175.188 152.479 174.719 152.843 174.511L152.844 174.51Z"></path>
  <path fill="#fff" d="M152.844 174.458C153.261 174.249 153.73 174.354 153.938 174.718L156.334 178.937C156.542 179.302 156.438 179.823 156.022 180.031C155.605 180.24 155.136 180.135 154.928 179.771L152.532 175.552C152.323 175.187 152.428 174.718 152.844 174.458H152.844ZM155.969 179.979C156.282 179.771 156.438 179.354 156.23 179.042L153.834 174.822C153.626 174.51 153.209 174.406 152.897 174.562C152.584 174.77 152.428 175.187 152.636 175.499L155.032 179.719C155.188 180.031 155.657 180.188 155.969 179.979V179.979Z"></path>
  <path fill="#F3F3F3" d="M145.918 171.073C146.335 170.917 146.751 171.073 146.908 171.437L151.127 181.489C151.283 181.854 151.075 182.323 150.71 182.479C150.345 182.635 149.877 182.479 149.721 182.114L145.502 172.063C145.345 171.698 145.553 171.229 145.918 171.073Z"></path>
  <path fill="#fff" d="M145.917 171.02C146.333 170.864 146.802 171.02 147.011 171.437L151.229 181.489C151.305 181.689 151.298 181.911 151.21 182.107C151.122 182.302 150.961 182.454 150.761 182.53C150.344 182.687 149.875 182.53 149.667 182.114L145.448 172.062C145.292 171.697 145.501 171.229 145.917 171.02ZM150.656 182.427C151.021 182.27 151.177 181.854 151.021 181.541L146.802 171.489C146.646 171.125 146.23 170.968 145.865 171.125C145.501 171.28 145.344 171.697 145.501 172.01L149.719 182.062C149.927 182.427 150.292 182.583 150.656 182.427Z"></path>
  <path fill="#F3F3F3" d="M143.366 178.469C143.783 178.313 144.199 178.521 144.356 178.938L145.866 183.521C146.022 183.885 145.762 184.354 145.397 184.459C144.981 184.614 144.564 184.406 144.408 183.99L142.897 179.406C142.742 179.042 142.95 178.625 143.366 178.469H143.366Z"></path>
  <path fill="#fff" d="M143.313 178.417C143.514 178.342 143.736 178.349 143.931 178.437C144.126 178.524 144.279 178.686 144.355 178.886L145.866 183.469C146.022 183.886 145.761 184.355 145.344 184.511C145.144 184.587 144.922 184.58 144.727 184.492C144.531 184.404 144.379 184.242 144.303 184.042L142.792 179.459C142.688 179.042 142.897 178.574 143.313 178.417ZM145.345 184.406C145.709 184.302 145.917 183.886 145.814 183.521L144.303 178.938C144.199 178.574 143.782 178.417 143.418 178.522C143.052 178.626 142.844 179.042 142.949 179.407L144.459 183.99C144.486 184.078 144.531 184.16 144.591 184.23C144.651 184.3 144.725 184.357 144.809 184.396C144.892 184.435 144.983 184.456 145.076 184.458C145.168 184.46 145.26 184.443 145.345 184.407V184.406Z"></path>
  <path fill="#F3F3F3" d="M137.22 173.729C137.636 173.625 138.054 173.885 138.105 174.302L140.293 184.979C140.398 185.396 140.085 185.761 139.668 185.864C139.252 185.969 138.834 185.708 138.783 185.292L136.594 174.614C136.543 174.25 136.803 173.833 137.22 173.729L137.22 173.729Z"></path>
  <path fill="#fff" d="M137.221 173.676C137.689 173.573 138.105 173.885 138.21 174.302L140.397 184.98C140.501 185.396 140.188 185.865 139.772 185.917C139.303 186.021 138.886 185.709 138.783 185.292L136.595 174.614C136.491 174.197 136.752 173.781 137.22 173.677L137.221 173.676ZM139.668 185.813C140.033 185.761 140.293 185.396 140.241 184.979L138.053 174.302C138.002 173.937 137.585 173.677 137.22 173.781C136.856 173.833 136.595 174.197 136.648 174.614L138.835 185.292C138.939 185.657 139.303 185.865 139.668 185.813L139.668 185.813Z"></path>
  <path fill="#F3F3F3" d="M133.263 180.5C133.679 180.448 134.044 180.708 134.148 181.125L134.773 185.916C134.825 186.333 134.513 186.697 134.095 186.75C133.679 186.802 133.315 186.541 133.21 186.125L132.586 181.333C132.534 180.916 132.846 180.552 133.263 180.5Z"></path>
  <path fill="#fff" d="M133.26 180.448C133.729 180.396 134.146 180.709 134.199 181.125L134.824 185.917C134.876 186.334 134.563 186.75 134.094 186.803C133.625 186.855 133.208 186.542 133.156 186.125L132.531 181.333C132.479 180.917 132.791 180.5 133.26 180.448ZM134.042 186.698C134.407 186.647 134.72 186.282 134.668 185.917L134.042 181.125C133.99 180.761 133.625 180.5 133.26 180.552C132.896 180.604 132.583 180.969 132.635 181.333L133.26 186.126C133.313 186.49 133.677 186.75 134.042 186.698Z"></path>
  <path fill="#F3F3F3" d="M127.896 174.666C128.313 174.666 128.678 174.979 128.678 175.396V186.281C128.678 186.698 128.313 187.01 127.896 187.01C127.48 187.01 127.115 186.698 127.115 186.281V175.396C127.167 174.979 127.48 174.666 127.896 174.666Z"></path>
  <path fill="#fff" d="M127.896 174.613C128.365 174.613 128.729 174.978 128.729 175.394V186.28C128.729 186.697 128.365 187.061 127.896 187.061C127.427 187.061 127.062 186.697 127.062 186.28V175.395C127.062 174.978 127.479 174.613 127.896 174.613ZM127.896 186.957C128.26 186.957 128.625 186.645 128.625 186.28V175.395C128.625 175.03 128.312 174.718 127.896 174.718C127.531 174.718 127.167 175.03 127.167 175.395V186.28C127.218 186.645 127.531 186.957 127.896 186.957Z"></path>
  <path fill="#F3F3F3" d="M122.688 180.5C123.105 180.552 123.417 180.864 123.417 181.281L123.053 186.125C123.001 186.542 122.636 186.854 122.219 186.802C121.803 186.75 121.49 186.437 121.49 186.021L121.855 181.177C121.907 180.761 122.271 180.448 122.688 180.5Z"></path>
  <path fill="#fff" d="M122.687 180.448C123.156 180.5 123.469 180.865 123.469 181.281L123.104 186.126C123.052 186.542 122.687 186.907 122.219 186.855C121.75 186.803 121.438 186.438 121.438 186.021L121.802 181.177C121.854 180.709 122.219 180.396 122.687 180.448ZM122.219 186.75C122.583 186.75 122.948 186.49 122.948 186.126L123.313 181.281C123.313 180.917 123.052 180.604 122.635 180.552C122.271 180.552 121.906 180.812 121.906 181.178L121.542 186.021C121.542 186.386 121.854 186.699 122.219 186.75H122.219Z"></path>
  <path fill="#F3F3F3" d="M118.781 173.728C119.198 173.832 119.458 174.197 119.406 174.613L117.271 185.292C117.166 185.708 116.802 185.969 116.385 185.864C115.969 185.761 115.708 185.396 115.761 184.979L117.896 174.301C117.948 173.936 118.365 173.676 118.781 173.728Z"></path>
  <path fill="#fff" d="M118.782 173.676C119.251 173.78 119.511 174.198 119.459 174.614L117.324 185.292C117.219 185.708 116.803 186.021 116.334 185.916C115.866 185.812 115.605 185.395 115.657 184.979L117.792 174.301C117.897 173.885 118.313 173.624 118.782 173.677L118.782 173.676ZM116.334 185.812C116.699 185.864 117.063 185.656 117.168 185.292L119.303 174.614C119.355 174.249 119.147 173.885 118.73 173.78C118.366 173.729 118.001 173.937 117.897 174.302L115.761 184.979C115.709 185.395 115.969 185.708 116.334 185.812Z"></path>
  <path fill="#F3F3F3" d="M112.533 178.417C112.95 178.521 113.21 178.938 113.106 179.355L111.804 184.042C111.7 184.458 111.283 184.666 110.866 184.563C110.767 184.539 110.674 184.496 110.591 184.436C110.509 184.375 110.439 184.3 110.385 184.213C110.332 184.126 110.297 184.029 110.281 183.928C110.265 183.827 110.269 183.724 110.293 183.625L111.595 178.938C111.7 178.521 112.116 178.313 112.533 178.417H112.533Z"></path>
  <path fill="#fff" d="M112.531 178.365C112.949 178.469 113.261 178.938 113.104 179.355L111.802 184.042C111.699 184.459 111.23 184.72 110.813 184.615C110.396 184.511 110.084 184.042 110.24 183.625L111.542 178.938C111.646 178.521 112.063 178.26 112.531 178.365V178.365ZM110.813 184.459C111.178 184.563 111.594 184.354 111.699 183.99L113 179.302C113.104 178.938 112.896 178.573 112.48 178.469C112.115 178.365 111.699 178.573 111.594 178.938L110.292 183.625C110.24 183.99 110.448 184.354 110.813 184.459Z"></path>
  <path fill="#F3F3F3" d="M109.98 171.073C110.397 171.229 110.553 171.698 110.397 172.062L106.23 182.115C106.075 182.48 105.605 182.688 105.241 182.48C104.876 182.271 104.668 181.854 104.824 181.49L108.991 171.438C109.147 171.073 109.616 170.865 109.98 171.073H109.98Z"></path>
  <path fill="#fff" d="M109.979 171.021C110.179 171.097 110.341 171.25 110.429 171.445C110.516 171.64 110.523 171.863 110.448 172.063L106.281 182.114C106.124 182.531 105.656 182.688 105.187 182.531C104.987 182.455 104.825 182.302 104.737 182.107C104.649 181.912 104.643 181.69 104.718 181.49L108.885 171.438C109.093 171.021 109.562 170.813 109.979 171.021ZM105.239 182.427C105.604 182.583 106.02 182.427 106.177 182.063L110.343 172.011C110.499 171.646 110.291 171.281 109.927 171.125C109.562 170.969 109.146 171.125 108.989 171.49L104.822 181.542C104.718 181.854 104.874 182.271 105.239 182.427Z"></path>
  <path fill="#F3F3F3" d="M102.948 174.407C103.312 174.615 103.468 175.032 103.312 175.396L101.125 179.718C100.916 180.083 100.5 180.239 100.083 180.031C99.7184 179.823 99.5625 179.406 99.7184 179.042L101.907 174.72C102.115 174.355 102.531 174.198 102.948 174.407Z"></path>
  <path fill="#fff" d="M102.949 174.354C103.366 174.562 103.522 175.032 103.314 175.448L101.126 179.771C100.918 180.187 100.449 180.344 100.033 180.135C99.616 179.927 99.4596 179.458 99.6682 179.042L101.855 174.719C102.064 174.302 102.533 174.146 102.949 174.354ZM100.085 180.031C100.449 180.187 100.866 180.083 101.022 179.719L103.21 175.396C103.365 175.083 103.21 174.667 102.897 174.459C102.533 174.303 102.116 174.407 101.96 174.771L99.7719 179.093C99.616 179.406 99.7719 179.823 100.085 180.031V180.031Z"></path>
  <path fill="#F3F3F3" d="M101.907 166.698C102.272 166.958 102.376 167.427 102.116 167.739L96.0741 176.751C95.8661 177.115 95.3967 177.167 95.0328 176.959C94.6682 176.698 94.5639 176.23 94.8242 175.917L100.866 166.905C101.074 166.541 101.543 166.437 101.907 166.697V166.698Z"></path>
  <path fill="#fff" d="M101.907 166.645C102.272 166.906 102.376 167.427 102.167 167.792L96.1257 176.803C95.8655 177.167 95.3967 177.271 94.98 177.011C94.6155 176.75 94.5112 176.229 94.7192 175.864L100.761 166.854C101.022 166.49 101.543 166.385 101.907 166.645ZM95.0322 176.906C95.344 177.114 95.8134 177.062 96.0214 176.75L102.064 167.74C102.272 167.427 102.168 167.011 101.855 166.802C101.543 166.594 101.074 166.646 100.866 166.958L94.8235 175.917C94.6155 176.229 94.7192 176.698 95.0322 176.906V176.906Z"></path>
  <path fill="#F3F3F3" d="M94.3033 168.625C94.6162 168.885 94.72 169.354 94.4598 169.666L91.4389 173.468C91.1786 173.781 90.7098 173.833 90.3975 173.572C90.0851 173.312 89.9808 172.843 90.2416 172.531L93.2619 168.729C93.5222 168.417 93.991 168.364 94.3033 168.625Z"></path>
  <path fill="#fff" d="M94.3546 168.572C94.7191 168.833 94.7713 169.354 94.5105 169.718L91.49 173.52C91.2298 173.885 90.7088 173.937 90.3443 173.625C89.9798 173.364 89.9276 172.844 90.1884 172.479L93.2089 168.677C93.4691 168.312 93.9901 168.26 94.3546 168.572ZM90.4486 173.52C90.7605 173.781 91.1777 173.729 91.4379 173.416L94.4589 169.614C94.6675 169.302 94.6148 168.885 94.303 168.625C93.9901 168.364 93.5734 168.416 93.3132 168.729L90.2922 172.531C90.0841 172.844 90.1363 173.312 90.4481 173.52H90.4486Z"></path>
  <path fill="#F3F3F3" d="M94.8242 160.813C95.1366 161.125 95.1366 161.594 94.8242 161.854L87.1164 169.51C86.8035 169.823 86.3353 169.771 86.0745 169.51C85.8143 169.25 85.7622 168.729 86.0745 168.469L93.7302 160.813C94.0431 160.5 94.5119 160.5 94.8242 160.813Z"></path>
  <path fill="#fff" d="M94.8752 160.761C95.0253 160.914 95.1094 161.119 95.1094 161.333C95.1094 161.548 95.0253 161.753 94.8752 161.906L87.1669 169.563C87.0141 169.713 86.8085 169.797 86.5943 169.797C86.3802 169.797 86.1746 169.713 86.0218 169.563C85.8714 169.41 85.7871 169.204 85.7871 168.99C85.7871 168.776 85.8714 168.57 86.0218 168.417L93.7296 160.761C93.8824 160.611 94.0881 160.526 94.3024 160.526C94.5167 160.526 94.7224 160.611 94.8752 160.761ZM86.0734 169.51C86.3336 169.771 86.8024 169.771 87.0626 169.51L94.7709 161.854C95.0317 161.594 95.0317 161.125 94.7709 160.865C94.5107 160.604 94.0419 160.604 93.7817 160.865L86.0734 168.521C85.8132 168.781 85.8132 169.198 86.0734 169.51V169.51Z"></path>
  <path fill="#F3F3F3" d="M87.0103 161.229C87.2705 161.541 87.2705 162.011 86.9582 162.271L83.2603 165.396C82.948 165.657 82.4791 165.604 82.2184 165.292C81.9582 164.979 81.9582 164.511 82.2705 164.25L85.9684 161.125C86.2813 160.864 86.7496 160.916 87.0103 161.229Z"></path>
  <path fill="#fff" d="M87.063 161.177C87.3754 161.542 87.3233 162.062 87.0109 162.323L83.313 165.448C83.0006 165.761 82.4797 165.708 82.1673 165.344C81.8544 164.979 81.9066 164.458 82.2189 164.198L85.9173 161.073C86.2292 160.761 86.7507 160.813 87.0625 161.178L87.063 161.177ZM82.2711 165.292C82.5318 165.604 82.9485 165.604 83.2603 165.396L86.9587 162.271C87.219 162.011 87.2711 161.594 87.0109 161.282C86.7501 160.969 86.3335 160.969 86.0216 161.178L82.3232 164.302C82.0109 164.562 82.0109 164.979 82.2711 165.291V165.292Z"></path>
  <path fill="#F3F3F3" d="M89.0958 153.728C89.3561 154.094 89.2518 154.562 88.8872 154.77L79.8249 160.812C79.4604 161.02 78.9916 160.916 78.7835 160.603C78.5228 160.239 78.6271 159.77 78.9916 159.562L88.0544 153.52C88.3673 153.312 88.8356 153.416 89.0964 153.728H89.0958Z"></path>
  <path fill="#fff" d="M89.1471 153.729C89.4073 154.094 89.303 154.615 88.9385 154.875L79.8763 160.917C79.5118 161.177 78.9909 161.073 78.7307 160.656C78.4699 160.292 78.5748 159.771 78.9387 159.511L88.0014 153.469C88.3659 153.209 88.8864 153.313 89.1466 153.729H89.1471ZM78.835 160.552C79.043 160.865 79.4597 160.969 79.772 160.761L88.8342 154.719C89.1471 154.511 89.2509 154.094 88.9907 153.73C88.7826 153.417 88.3659 153.313 88.0531 153.521L78.9909 159.563C78.6785 159.823 78.6264 160.24 78.835 160.552Z"></path>
  <path fill="#F3F3F3" d="M81.3339 152.635C81.5425 153 81.4382 153.469 81.0737 153.677L76.8548 156.073C76.4903 156.281 76.0214 156.125 75.8134 155.76C75.6048 155.396 75.7091 154.927 76.0736 154.718L80.2925 152.323C80.657 152.114 81.1258 152.271 81.3344 152.635H81.3339Z"></path>
  <path fill="#fff" d="M81.3864 152.584C81.5945 153 81.4902 153.469 81.1257 153.677L76.9069 156.073C76.5424 156.281 76.0214 156.125 75.8134 155.761C75.6048 155.344 75.7091 154.875 76.0736 154.667L80.2923 152.271C80.6569 152.063 81.1778 152.219 81.3859 152.584H81.3864ZM75.865 155.708C76.0736 156.073 76.4902 156.177 76.8026 155.969L81.0214 153.573C81.3337 153.365 81.438 152.948 81.2821 152.636C81.0735 152.271 80.6569 152.167 80.3445 152.375L76.1257 154.771C75.8134 154.927 75.7091 155.344 75.8655 155.708H75.865Z"></path>
  <path fill="#F3F3F3" d="M84.8223 145.708C84.9782 146.125 84.8223 146.542 84.4056 146.698L74.3535 150.864C73.9889 151.021 73.5201 150.813 73.3642 150.448C73.2078 150.031 73.3642 149.614 73.7809 149.458L83.833 145.292C84.1975 145.136 84.6664 145.292 84.8223 145.708Z"></path>
  <path fill="#fff" d="M84.8744 145.657C85.0303 146.073 84.8744 146.542 84.4578 146.75L74.4056 150.917C74.2053 150.992 73.9833 150.985 73.7881 150.897C73.5929 150.81 73.4405 150.648 73.3642 150.448C73.2078 150.031 73.3642 149.562 73.7809 149.354L83.833 145.188C84.0333 145.112 84.2554 145.119 84.4506 145.207C84.6457 145.295 84.7981 145.457 84.8744 145.657ZM73.468 150.396C73.6244 150.761 74.0411 150.917 74.3535 150.812L84.4056 146.646C84.7701 146.49 84.9266 146.073 84.7701 145.709C84.6142 145.344 84.1975 145.188 83.8846 145.292L73.8325 149.459C73.468 149.615 73.3121 150.031 73.468 150.396V150.396Z"></path>
  <path fill="#F3F3F3" d="M77.481 143.104C77.6369 143.52 77.4289 143.937 77.0122 144.093L72.4288 145.604C72.0643 145.759 71.5955 145.499 71.4912 145.135C71.3353 144.718 71.5433 144.301 71.96 144.145L76.5434 142.635C76.9079 142.479 77.3246 142.687 77.481 143.104Z"></path>
  <path fill="#fff" d="M77.5308 143.052C77.6872 143.469 77.4791 143.938 77.0103 144.094L72.4271 145.605C72.0104 145.761 71.5416 145.5 71.3851 145.084C71.2292 144.667 71.4373 144.198 71.9066 144.042L76.4894 142.531C76.906 142.428 77.3748 142.636 77.5313 143.053L77.5308 143.052ZM71.49 145.032C71.5943 145.397 72.0109 145.605 72.3754 145.501L76.9587 143.99C77.3232 143.886 77.4797 143.47 77.3754 143.105C77.2711 142.74 76.8544 142.532 76.4899 142.636L71.9066 144.147C71.5421 144.303 71.3857 144.668 71.49 145.032Z"></path>
  <path fill="#F3F3F3" d="M82.1682 136.906C82.272 137.323 82.0118 137.739 81.5951 137.792L70.9177 139.875C70.5011 139.979 70.1366 139.666 70.0328 139.25C69.9285 138.833 70.1887 138.416 70.6054 138.364L81.2827 136.281C81.6994 136.229 82.1161 136.49 82.1677 136.906H82.1682Z"></path>
  <path fill="#fff" d="M82.2712 136.906C82.3755 137.375 82.0631 137.791 81.6465 137.895L70.9691 139.979C70.5524 140.083 70.1357 139.77 70.032 139.302C69.9277 138.833 70.24 138.416 70.6567 138.312L81.3341 136.229C81.7502 136.125 82.1674 136.437 82.2712 136.906ZM70.1357 139.25C70.1879 139.614 70.5524 139.875 70.9169 139.823L81.5943 137.739C81.9588 137.687 82.2191 137.27 82.1153 136.906C82.0631 136.541 81.6986 136.281 81.3336 136.333L70.6567 138.416C70.2922 138.52 70.032 138.885 70.1357 139.25V139.25Z"></path>
  <path fill="#F3F3F3" d="M75.5008 132.896C75.5524 133.312 75.2922 133.678 74.8755 133.73L70.0841 134.302C69.6669 134.355 69.3024 134.042 69.2508 133.625C69.1986 133.209 69.4588 132.844 69.8755 132.791L74.6674 132.219C75.0319 132.166 75.4486 132.479 75.5008 132.896Z"></path>
  <path fill="#fff" d="M75.5534 132.896C75.605 133.364 75.2926 133.781 74.8759 133.833L70.0845 134.406C69.6673 134.458 69.2512 134.146 69.1991 133.677C69.1469 133.209 69.4593 132.792 69.8759 132.74L74.6679 132.167C75.084 132.115 75.5012 132.428 75.5528 132.896L75.5534 132.896ZM69.2507 133.625C69.3028 133.99 69.6679 134.303 70.0324 134.25L74.8238 133.677C75.1883 133.625 75.4491 133.261 75.3969 132.896C75.3448 132.531 74.9802 132.219 74.6157 132.271L69.8238 132.844C69.4593 132.896 69.1991 133.261 69.2507 133.625Z"></path>
  <path fill="#F3F3F3" d="M81.3332 127.844C81.3332 128.261 81.0213 128.625 80.6041 128.625H69.7193C69.3026 128.625 68.9902 128.261 68.9902 127.844C68.9902 127.428 69.3026 127.062 69.7193 127.062H80.6047C81.0213 127.062 81.3342 127.428 81.3342 127.844L81.3332 127.844Z"></path>
  <path fill="#fff" d="M81.3873 127.843C81.3873 128.312 81.0223 128.676 80.6056 128.676H69.7206C69.304 128.676 68.9395 128.312 68.9395 127.843C68.9395 127.375 69.304 127.01 69.7206 127.01H80.6061C81.0228 127.01 81.3873 127.375 81.3873 127.843ZM69.0432 127.791C69.0432 128.156 69.3556 128.52 69.7206 128.52H80.6056C80.9701 128.52 81.283 128.208 81.283 127.791C81.283 127.427 80.9701 127.062 80.6056 127.062H69.7206C69.3561 127.114 69.0438 127.427 69.0438 127.791H69.0432Z"></path>
  <path fill="#E2E2E2" d="M75.5544 122.583C75.5018 122.999 75.1894 123.312 74.7727 123.312L69.9286 122.947C69.5124 122.895 69.2001 122.53 69.2517 122.114C69.3038 121.697 69.6167 121.385 70.0334 121.385L74.877 121.749C75.2415 121.801 75.5544 122.166 75.5544 122.583Z"></path>
  <path fill="#fff" d="M75.6042 122.583C75.5521 123.052 75.1876 123.364 74.7709 123.364L69.9268 123C69.5107 122.948 69.1462 122.583 69.1983 122.114C69.25 121.646 69.615 121.333 70.0317 121.333L74.8752 121.698C75.2919 121.75 75.6042 122.166 75.6042 122.583ZM69.25 122.114C69.1983 122.479 69.5107 122.844 69.8752 122.844L74.7193 123.208C75.0833 123.208 75.3962 122.948 75.4483 122.531C75.5005 122.166 75.1876 121.802 74.823 121.802L69.979 121.437C69.615 121.437 69.3021 121.75 69.25 122.115V122.114Z"></path>
  <path fill="#F3F3F3" d="M82.2718 118.78C82.1675 119.197 81.8029 119.458 81.3863 119.406L70.7094 117.218C70.2927 117.114 70.032 116.749 70.1363 116.333C70.2406 115.916 70.6051 115.655 71.0218 115.708L81.6992 117.843C82.0637 117.947 82.3239 118.364 82.2718 118.78Z"></path>
  <path fill="#fff" d="M82.3239 118.781C82.2196 119.25 81.8029 119.51 81.3862 119.458L70.7094 117.323C70.2928 117.218 69.9804 116.802 70.0847 116.333C70.1885 115.864 70.6051 115.604 71.0218 115.656L81.6991 117.791C82.1158 117.896 82.376 118.312 82.3239 118.781ZM70.1885 116.333C70.1363 116.697 70.3444 117.062 70.7094 117.166L81.3868 119.302C81.7513 119.354 82.1158 119.146 82.2201 118.729C82.2717 118.364 82.0637 118 81.6986 117.895L71.0223 115.76C70.6057 115.708 70.2933 115.968 70.189 116.333H70.1885Z"></path>
  <path fill="#F3F3F3" d="M77.5848 112.531C77.5609 112.63 77.5177 112.724 77.4576 112.806C77.3975 112.889 77.3218 112.958 77.2347 113.012C77.1476 113.065 77.0509 113.1 76.9501 113.116C76.8493 113.132 76.7463 113.128 76.6472 113.104L71.9595 111.802C71.5428 111.697 71.3347 111.281 71.4385 110.864C71.4624 110.765 71.5056 110.671 71.5657 110.589C71.6258 110.506 71.7015 110.436 71.7886 110.383C71.8757 110.33 71.9724 110.295 72.0732 110.279C72.174 110.263 72.277 110.267 72.3761 110.291L77.0638 111.593C77.4805 111.697 77.6886 112.114 77.5848 112.53V112.531Z"></path>
  <path fill="#fff" d="M77.6364 112.531C77.5326 112.947 77.0638 113.26 76.6471 113.104L71.9594 111.802C71.5427 111.697 71.282 111.228 71.3863 110.812C71.4906 110.395 71.9594 110.083 72.3761 110.239L77.0638 111.541C77.4805 111.646 77.7412 112.062 77.6364 112.531V112.531ZM71.5427 110.811C71.4384 111.176 71.647 111.593 72.0116 111.697L76.6993 112.999C77.0638 113.103 77.4283 112.894 77.5326 112.478C77.6364 112.113 77.4283 111.697 77.0638 111.593L72.3761 110.291C72.0116 110.239 71.647 110.447 71.5427 110.812V110.811Z"></path>
  <path fill="#F3F3F3" d="M84.927 110.031C84.771 110.447 84.3017 110.604 83.9377 110.447L73.885 106.281C73.5205 106.125 73.3124 105.656 73.4684 105.292C73.6248 104.875 74.0936 104.718 74.4581 104.875L84.5103 109.042C84.927 109.197 85.0834 109.666 84.927 110.031V110.031Z"></path>
  <path fill="#fff" d="M84.9803 110.083C84.904 110.283 84.7515 110.445 84.5562 110.533C84.3609 110.62 84.1387 110.627 83.9383 110.552L73.8861 106.385C73.4694 106.229 73.3135 105.76 73.4694 105.291C73.5457 105.091 73.6982 104.93 73.8935 104.842C74.0888 104.754 74.311 104.747 74.5114 104.823L84.5636 108.989C84.9803 109.197 85.1362 109.667 84.9803 110.083ZM73.5737 105.344C73.4178 105.708 73.5737 106.125 73.9383 106.281L83.9905 110.447C84.355 110.604 84.7195 110.395 84.876 110.031C85.0319 109.666 84.876 109.249 84.5115 109.094L74.4592 104.927C74.0947 104.823 73.6781 104.979 73.5737 105.344Z"></path>
  <path fill="#F3F3F3" d="M81.5424 103C81.3343 103.364 80.9177 103.521 80.5532 103.364L76.23 101.177C75.8655 101.02 75.7091 100.552 75.9177 100.135C76.1257 99.7704 76.5424 99.6139 76.9069 99.7704L81.2295 101.958C81.5946 102.166 81.751 102.636 81.5424 103Z"></path>
  <path fill="#fff" d="M81.5958 103.052C81.3872 103.469 80.9184 103.625 80.5017 103.416L76.1792 101.229C75.7625 101.021 75.6061 100.552 75.8147 100.135C76.0227 99.7186 76.4921 99.5621 76.9082 99.7707L81.2308 101.958C81.648 102.114 81.8039 102.636 81.5958 103.052ZM75.9706 100.187C75.8147 100.552 75.919 100.969 76.2835 101.125L80.606 103.313C80.9189 103.469 81.3356 103.313 81.5437 103C81.6996 102.635 81.5958 102.219 81.2313 102.062L76.8555 99.8756C76.5432 99.7196 76.1265 99.8234 75.97 100.188L75.9706 100.187Z"></path>
  <path fill="#F3F3F3" d="M89.1985 102.01C88.9383 102.375 88.5216 102.479 88.1571 102.218L79.1461 96.229C78.7821 96.0204 78.73 95.5516 78.9381 95.1871C79.1467 94.8225 79.6155 94.7182 79.98 94.9785L89.0426 101.02C89.355 101.229 89.4593 101.698 89.1985 102.01Z"></path>
  <path fill="#fff" d="M89.2511 102.062C88.9909 102.427 88.4699 102.531 88.1059 102.323L79.0953 96.2808C78.7307 96.0206 78.6264 95.5518 78.8867 95.1356C79.1474 94.7706 79.6684 94.6663 80.0329 94.8749L89.043 100.916C89.4597 101.177 89.5118 101.697 89.2511 102.062ZM78.991 95.1872C78.7829 95.4996 78.835 95.9684 79.1469 96.1765L88.2097 102.219C88.5221 102.428 88.9387 102.323 89.1473 102.011C89.3554 101.698 89.3032 101.229 88.9914 101.021L79.928 94.9792C79.6157 94.7706 79.199 94.8749 78.9904 95.1872H78.991Z"></path>
  <path fill="#F3F3F3" d="M87.2707 94.4577C87.0105 94.7701 86.5417 94.8744 86.2293 94.6136L82.4271 91.6454C82.1147 91.3847 82.0626 90.9159 82.3228 90.6035C82.583 90.2912 83.0519 90.1869 83.3648 90.4476L87.1664 93.4158C87.4793 93.6766 87.5315 94.1448 87.2707 94.4577Z"></path>
  <path fill="#fff" d="M87.3233 94.5097C87.0631 94.8748 86.5421 94.9269 86.1776 94.6662L82.3756 91.698C82.011 91.4377 81.9589 90.9168 82.2196 90.5528C82.4799 90.1878 83.0008 90.1356 83.3648 90.3964L87.1669 93.3646C87.5319 93.6253 87.5841 94.1458 87.3233 94.5108V94.5097ZM82.3234 90.6039C82.0632 90.9162 82.1153 91.3329 82.4277 91.5931L86.2298 94.5624C86.5421 94.7705 86.9588 94.7183 87.219 94.406C87.4798 94.0936 87.4276 93.677 87.1152 93.4167L83.3132 90.4474C83.0008 90.2394 82.5836 90.2915 82.3239 90.6039H82.3234Z"></path>
  <path fill="#F3F3F3" d="M95.0323 94.9787C94.7204 95.2916 94.2511 95.2916 93.9909 94.9787L86.231 87.3227C85.9186 87.0103 85.9702 86.5415 86.231 86.2807C86.5434 85.9689 87.0122 85.9689 87.2724 86.2807L94.9812 93.9373C95.2936 94.1975 95.2936 94.7185 95.0334 94.9792L95.0323 94.9787Z"></path>
  <path fill="#fff" d="M95.0322 95.0317C94.8794 95.1817 94.6738 95.2658 94.4597 95.2658C94.2455 95.2658 94.0399 95.1817 93.8871 95.0317L86.178 87.3748C86.0276 87.2219 85.9434 87.0161 85.9434 86.8016C85.9434 86.5872 86.0276 86.3814 86.178 86.2285C86.3308 86.0783 86.5366 85.9941 86.7509 85.9941C86.9652 85.9941 87.1709 86.0783 87.3237 86.2285L95.0322 93.8849C95.3968 94.1973 95.3968 94.7182 95.0322 95.0306V95.0317ZM86.2834 86.3328C86.0226 86.5936 86.0226 87.0624 86.2834 87.3221L93.9914 94.9785C94.2521 95.2392 94.7204 95.2392 94.9806 94.9785C95.2414 94.7182 95.2414 94.2494 94.9806 93.9892L87.2726 86.2812C87.0124 86.021 86.5952 86.021 86.2834 86.3334V86.3328Z"></path>
  <path fill="#F3F3F3" d="M94.5633 87.2188C94.2509 87.4796 93.7821 87.4796 93.5214 87.1667L90.344 83.521C90.0843 83.2086 90.136 82.7398 90.4489 82.4796C90.7607 82.2188 91.23 82.2188 91.4902 82.5312L94.6676 86.1774C94.9278 86.4377 94.8757 86.9065 94.5633 87.2188Z"></path>
  <path fill="#fff" d="M94.6161 87.2188C94.2516 87.5312 93.7827 87.4796 93.4698 87.1667L90.293 83.521C89.9806 83.2086 90.0327 82.6876 90.3973 82.3753C90.7618 82.0624 91.2306 82.1145 91.543 82.4274L94.7204 86.0726C94.9806 86.4377 94.9806 86.9586 94.6161 87.2188ZM90.4494 82.4796C90.1365 82.7398 90.1365 83.1565 90.3451 83.4688L93.5225 87.1145C93.7827 87.3753 94.1994 87.4275 94.5118 87.1667C94.8241 86.9065 94.8241 86.4893 94.6161 86.1774L91.4386 82.5312C91.1784 82.2193 90.7612 82.2193 90.4494 82.4796Z"></path>
  <path fill="#F3F3F3" d="M102.062 89.1981C101.698 89.4583 101.229 89.354 101.02 88.9895L94.9269 79.9788C94.7183 79.6143 94.8226 79.1455 95.135 78.9374C95.4995 78.6772 95.9683 78.7815 96.1769 79.146L102.218 88.1562C102.479 88.5207 102.375 88.9895 102.062 89.1976V89.1981Z"></path>
  <path fill="#fff" d="M102.063 89.2501C101.699 89.5109 101.178 89.4061 100.917 89.0421L94.8762 80.0313C94.616 79.6667 94.7203 79.1463 95.1364 78.8861C95.5009 78.6253 96.0218 78.7296 96.2826 79.0942L102.324 88.1044C102.584 88.5211 102.48 88.9899 102.063 89.2501ZM95.188 78.9899C94.8756 79.1979 94.7713 79.6146 94.9799 79.9275L101.021 88.9378C101.23 89.2501 101.646 89.3023 102.01 89.0937C102.323 88.8856 102.427 88.4689 102.219 88.1566L96.1783 79.1979C95.9697 78.8861 95.5009 78.7812 95.1891 78.9899H95.188Z"></path>
  <path fill="#F3F3F3" d="M103.158 81.4893C102.793 81.6974 102.324 81.5937 102.116 81.2291L99.7201 77.0103C99.5121 76.6458 99.668 76.177 100.033 75.9684C100.398 75.7603 100.866 75.8641 101.074 76.2291L103.47 80.4474C103.626 80.8119 103.522 81.2807 103.158 81.4893H103.158Z"></path>
  <path fill="#fff" d="M103.156 81.5415C102.74 81.7496 102.271 81.6458 102.063 81.2808L99.6664 77.0625C99.4584 76.6974 99.5627 76.177 99.9793 75.9684C100.396 75.7603 100.865 75.8641 101.073 76.2291L103.469 80.4474C103.677 80.812 103.573 81.2808 103.157 81.5415H103.156ZM100.031 76.0205C99.7186 76.2286 99.5627 76.6453 99.7707 76.9582L102.167 81.177C102.375 81.4888 102.792 81.5937 103.104 81.4372C103.417 81.2292 103.573 80.812 103.365 80.4996L100.969 76.2808C100.813 75.9689 100.344 75.8119 100.031 76.0205Z"></path>
  <path fill="#F3F3F3" d="M110.082 84.9271C109.666 85.0831 109.249 84.9271 109.093 84.5626L104.875 74.5099C104.719 74.1454 104.927 73.6766 105.291 73.5202C105.708 73.3642 106.125 73.5202 106.28 73.8847L110.499 83.9368C110.656 84.3013 110.447 84.7702 110.082 84.9261V84.9271Z"></path>
  <path fill="#fff" d="M110.085 84.9792C109.669 85.1351 109.2 84.9792 108.992 84.5619L104.773 74.5104C104.697 74.31 104.704 74.0879 104.792 73.8926C104.88 73.6972 105.042 73.5447 105.242 73.4685C105.658 73.3126 106.127 73.4685 106.336 73.8851L110.554 83.9372C110.711 84.3017 110.503 84.7706 110.086 84.9792H110.085ZM105.346 73.5728C104.981 73.7287 104.825 74.1459 104.981 74.4582L109.2 84.5098C109.356 84.8743 109.772 85.0302 110.137 84.8743C110.501 84.7184 110.658 84.3012 110.501 83.9888L106.283 73.9367C106.075 73.5722 105.71 73.4158 105.345 73.5722L105.346 73.5728Z"></path>
  <path fill="#F3F3F3" d="M112.636 77.5317C112.219 77.6877 111.802 77.4791 111.647 77.0629L110.136 72.4791C109.98 72.1146 110.24 71.6458 110.605 71.542C110.969 71.4377 111.438 71.5942 111.594 72.0108L113.104 76.5941C113.26 76.9586 113.052 77.3753 112.636 77.5312V77.5317Z"></path>
  <path fill="#fff" d="M112.688 77.583C112.487 77.6585 112.265 77.6516 112.07 77.5637C111.875 77.4759 111.723 77.3142 111.646 77.1142L110.136 72.5309C109.98 72.1142 110.24 71.6459 110.657 71.4895C110.857 71.414 111.079 71.421 111.275 71.5088C111.47 71.5967 111.622 71.7583 111.699 71.9583L113.209 76.5416C113.313 76.9583 113.104 77.4271 112.688 77.583ZM110.657 71.5938C110.292 71.6976 110.083 72.1142 110.188 72.4787L111.699 77.0626C111.802 77.4271 112.219 77.583 112.584 77.4787C112.949 77.375 113.157 76.9583 113.052 76.5938L111.542 72.0099C111.515 71.9215 111.471 71.8397 111.41 71.7697C111.35 71.6998 111.276 71.6434 111.192 71.6041C111.109 71.5648 111.018 71.5435 110.926 71.5416C110.833 71.5398 110.742 71.5574 110.657 71.5933V71.5938Z"></path>
  <path fill="#F3F3F3" d="M118.781 82.2707C118.364 82.375 117.947 82.1148 117.895 81.6976L115.708 71.0208C115.603 70.6042 115.916 70.2396 116.332 70.1353C116.75 70.031 117.166 70.2912 117.218 70.7085L119.406 81.3858C119.458 81.7498 119.197 82.1664 118.781 82.2707Z"></path>
  <path fill="#fff" d="M118.782 82.3225C118.313 82.4268 117.896 82.1139 117.792 81.6972L115.604 71.0204C115.5 70.6037 115.813 70.1349 116.229 70.0827C116.698 69.9784 117.115 70.2913 117.219 70.708L119.407 81.3854C119.511 81.8015 119.25 82.2187 118.782 82.3225ZM116.334 70.187C115.969 70.2392 115.709 70.6037 115.761 71.0204L117.948 81.6978C118 82.0617 118.417 82.3225 118.782 82.2182C119.146 82.166 119.406 81.8015 119.354 81.3849L117.167 70.7074C117.063 70.3435 116.698 70.1349 116.333 70.187H116.334Z"></path>
  <path fill="#F3F3F3" d="M122.74 75.4999C122.324 75.552 121.959 75.2918 121.855 74.8751L121.23 70.0831C121.178 69.6664 121.491 69.3019 121.908 69.2498C122.324 69.1976 122.688 69.4584 122.793 69.8751L123.417 74.6665C123.469 75.0832 123.157 75.4477 122.74 75.4999Z"></path>
  <path fill="#fff" d="M122.74 75.5523C122.271 75.6045 121.854 75.2921 121.802 74.8749L121.178 70.0835C121.125 69.6668 121.438 69.2501 121.907 69.198C122.375 69.1464 122.792 69.4587 122.844 69.8754L123.469 74.6668C123.521 75.0835 123.209 75.5002 122.74 75.5523ZM121.959 69.3023C121.594 69.3544 121.281 69.7189 121.333 70.0835L121.959 74.8754C122.011 75.2399 122.375 75.5002 122.74 75.448C123.104 75.3964 123.417 75.0313 123.365 74.6668L122.74 69.8754C122.688 69.5109 122.323 69.2501 121.959 69.3023Z"></path>
  <path fill="url(#paint2_linear_533_1918)" fill-opacity=".2" d="M128.366 189.615C162.423 189.615 190.033 162.005 190.033 127.948C190.033 93.8904 162.423 66.2812 128.366 66.2812C94.3083 66.2812 66.6992 93.8904 66.6992 127.948C66.6992 162.005 94.3083 189.615 128.366 189.615Z"></path>
  <path fill="#000" fill-opacity=".05" d="M171.074 88.833L121.335 120.708H121.282V120.76L121.23 120.812L90.1895 172.01L135.814 135.292L135.866 135.24V135.188L171.075 88.8335L171.074 88.833Z"></path>
  <path fill="#CD151E" d="M170.135 85.8643L120.969 120.812L135.552 135.291L170.135 85.8643Z"></path>
  <path fill="#FA5153" d="M121.021 120.708L128.366 127.947L170.136 85.8643L121.021 120.708Z"></path>
  <path fill="#ACACAC" d="M121.021 120.709L135.604 135.187L86.4375 170.135L121.021 120.708V120.709Z"></path>
  <path fill="#EEE" d="M86.4375 170.135L128.364 127.948L121.02 120.708L86.4375 170.135Z"></path>
  <defs>
    <linearGradient id="paint0_linear_533_1918" x1="128.001" x2="128.001" y1="194.666" y2="61.333" gradientUnits="userSpaceOnUse">
      <stop offset=".25" stop-color="#DBDBDA"></stop>
      <stop offset="1" stop-color="#fff"></stop>
    </linearGradient>
    <linearGradient id="paint2_linear_533_1918" x1="127.194" x2="98.412" y1="110.315" y2="161.953" gradientUnits="userSpaceOnUse">
      <stop stop-opacity="0"></stop>
      <stop offset="1"></stop>
    </linearGradient>
    <radialGradient id="paint1_radial_533_1918" cx="0" cy="0" r="1" gradientTransform="translate(136.665 114.454)scale(75.2728)" gradientUnits="userSpaceOnUse">
      <stop stop-color="#2ABCE1"></stop>
      <stop offset=".114" stop-color="#2ABBE1"></stop>
      <stop offset="1" stop-color="#3375F8"></stop>
    </radialGradient>
  </defs>
</svg>
